<?xml version="1.0" encoding="UTF-8" standalone="no"?>
<!-- Created with Inkscape (http://www.inkscape.org/) -->

<svg
   xmlns:dc="http://purl.org/dc/elements/1.1/"
   xmlns:cc="http://creativecommons.org/ns#"
   xmlns:rdf="http://www.w3.org/1999/02/22-rdf-syntax-ns#"
   xmlns:svg="http://www.w3.org/2000/svg"
   xmlns="http://www.w3.org/2000/svg"
   xmlns:sodipodi="http://sodipodi.sourceforge.net/DTD/sodipodi-0.dtd"
   xmlns:inkscape="http://www.inkscape.org/namespaces/inkscape"
   version="1.0"
   width="400.87827"
   height="419.87268"
   id="svg4184"
   inkscape:version="0.91 r13725"
   sodipodi:docname="Map-Europe.svg"
   inkscape:export-filename="/Users/clementinecottineau/Documents/eighties-cities.github.io/data/Map-Europe_2016.png"
   inkscape:export-xdpi="200"
   inkscape:export-ydpi="200">
  <metadata
     id="metadata51">
    <rdf:RDF>
      <cc:Work
         rdf:about="">
        <dc:format>image/svg+xml</dc:format>
        <dc:type
           rdf:resource="http://purl.org/dc/dcmitype/StillImage" />
      </cc:Work>
    </rdf:RDF>
  </metadata>
  <sodipodi:namedview
     pagecolor="#ffffff"
     bordercolor="#666666"
     borderopacity="1"
     objecttolerance="10"
     gridtolerance="10"
     guidetolerance="10"
     inkscape:pageopacity="0"
     inkscape:pageshadow="2"
     inkscape:window-width="1015"
     inkscape:window-height="810"
     id="namedview49"
     showgrid="false"
     inkscape:zoom="1.0606579"
     inkscape:cx="200.81876"
     inkscape:cy="209.17735"
     inkscape:window-x="588"
     inkscape:window-y="0"
     inkscape:window-maximized="0"
     inkscape:current-layer="svg4184" />
  <defs
     id="defs4186" />
  <rect
     style="opacity:1;fill:#9d9d9d;fill-opacity:1;fill-rule:evenodd;stroke:none;stroke-width:1;stroke-linecap:butt;stroke-linejoin:round;stroke-miterlimit:4;stroke-dasharray:none;stroke-dashoffset:0;stroke-opacity:1"
     id="rect4176"
     width="412.00842"
     height="428.16095"
     x="-10.370922"
     y="0.77221143" />
  <path
     inkscape:connector-curvature="0"
     id="path6995"
     style="fill:#9d9d9d;fill-opacity:1"
     d="" />
  <path
     inkscape:connector-curvature="0"
     id="path7029"
     style="fill:#ffffff;fill-opacity:1"
     d="m 155.41827,169.06471 c -0.37301,-0.60354 -1.17357,-0.79118 -1.77904,-0.41699 -0.73412,0.45372 -0.86006,0.0529 -0.37805,-1.2032 0.39754,-1.03596 0.41484,-1.57562 0.0385,-1.19923 -1.18101,1.18101 -4.42137,-1.22321 -4.42137,-3.28048 0,-1.08065 0.47656,-1.96482 1.05902,-1.96482 0.58246,0 0.7809,-0.45 0.44098,-1 -0.33992,-0.55 -0.27528,-1.55459 0.14364,-2.23242 1.65035,-2.67032 1.06347,-4.43425 -1.32351,-3.97795 -1.27607,0.24394 -2.32702,0.95356 -2.33544,1.57695 -0.008,0.62599 -0.42417,0.48722 -0.92855,-0.30999 -0.65427,-1.03409 -0.32707,-1.74303 1.15384,-2.5 2.09586,-1.0713 3.4805,-7.42603 1.67375,-7.68159 -0.48605,-0.0687 -1.40873,-0.18125 -2.0504,-0.25 -0.64166,-0.0687 -1.34362,-0.65588 -1.55991,-1.30474 -0.44348,-1.33044 7.90973,-2.94313 9.65558,-1.86414 0.65476,0.40466 1.071,-0.33264 1.071,-1.8971 0,-2.88184 -1.15022,-3.28787 -3,-1.05902 -1.57641,1.89945 -5.70446,1.9384 -7.57143,0.0714 -0.82143,-0.82143 -1.42857,-3.37143 -1.42857,-6 0,-4.06954 0.24702,-4.57311 2.25,-4.58674 1.2375,-0.008 2.925,-0.45153 3.75,-0.98469 1.11235,-0.71886 0.46626,-0.99082 -2.5,-1.05237 -3.61449,-0.075 -3.78315,-0.18757 -1.75,-1.16812 1.2375,-0.59683 2.25,-1.49858 2.25,-2.00389 0,-0.50531 1.0125,-0.78607 2.25,-0.6239 1.2375,0.16216 2.475,-0.14313 2.75,-0.67844 0.275,-0.5353 -0.58545,-1.12664 -1.91211,-1.31407 -1.77198,-0.25036 -2.05166,-0.56357 -1.05388,-1.18023 0.75723,-0.46799 2.15642,-0.41225 3.16211,0.12598 2.36881,1.26775 2.54091,-1.59312 0.17546,-2.91689 -1.11334,-0.62306 -1.27149,-1.13189 -0.5,-1.6087 0.62063,-0.38357 1.12842,-0.39075 1.12842,-0.0159 0,0.3748 0.65529,0.13762 1.4562,-0.52708 0.8009,-0.66469 2.00237,-0.87097 2.66993,-0.45839 0.82117,0.50751 1.01928,0.24335 0.61249,-0.81672 -0.33069,-0.86176 0.0343,-2.39808 0.81106,-3.41404 1.22816,-1.60634 1.54319,-1.65161 2.416,-0.3472 0.78537,1.17372 1.00703,1.20273 1.01901,0.13337 0.01,-0.88842 0.74113,-1.17683 2.08952,-0.82421 2.65315,0.69381 6.13512,-2.60009 5.23317,-4.95052 -0.35599,-0.9277 -0.23329,-1.43427 0.27268,-1.12572 0.50597,0.30856 1.79898,-0.63012 2.87337,-2.08595 1.93791,-2.62594 1.93791,-2.63557 0,-1.21274 -1.07439,0.78882 -3.1185,2.76462 -4.54247,4.39065 -1.91614,2.18805 -2.72978,2.58966 -3.13056,1.54525 C 164.8809,102.84318 167.83303,96 169.48526,96 c 0.76618,0 1.46055,-0.675 1.54305,-1.5 0.0825,-0.825 0.195,-2.05686 0.25,-2.73747 0.055,-0.68061 1.45,-2.46742 3.1,-3.97069 1.65,-1.50327 2.45649,-2.7464 1.79221,-2.76253 -0.77067,-0.0187 -1.06961,-1.20554 -0.82598,-3.27931 0.58818,-5.00673 1.01199,-6.41637 2.45005,-8.14912 C 178.92102,72.24362 178.8734,72 177.4817,72 c -1.26874,0 -1.50596,-0.62447 -1.04465,-2.75 1.07105,-4.93489 2.74458,-7.26955 5.86968,-8.18849 2.80013,-0.82338 2.88328,-0.96193 0.94085,-1.5678 -2.03301,-0.63411 -2.05962,-0.80714 -0.58027,-3.77257 1.12176,-2.24861 1.22703,-3.2158 0.38073,-3.4979 -1.99094,-0.66364 -1.28572,-2.48684 0.75545,-1.95306 1.34701,0.35225 1.7661,0.0889 1.39548,-0.87693 -0.31523,-0.82148 0.38736,-1.71961 1.73529,-2.21824 1.61144,-0.59611 1.858,-0.99086 0.85452,-1.36806 -0.77576,-0.2916 -2.31047,-0.17408 -3.41047,0.26115 -1.1,0.43523 -1.41094,0.82296 -0.69098,0.86161 0.71996,0.0387 1.05034,0.48883 0.73418,1.00039 -0.71314,1.15388 -6.0375,0.67799 -6.05851,-0.54152 -0.008,-0.48872 -0.31623,-1.36007 -0.68402,-1.93633 -1.1234,-1.76018 0.83797,-3.78001 3.09697,-3.18927 1.19339,0.31208 2.10236,0.0753 2.10236,-0.54773 0,-0.60363 0.59295,-0.2866 1.31767,0.70452 1.23474,1.6886 1.42357,1.69613 3,0.1197 0.92528,-0.92528 1.67544,-1.98768 1.66702,-2.3609 -0.0273,-1.20935 -1.45837,-2.98507 -2.48469,-3.08308 -0.55,-0.0525 -1,-0.88299 -1,-1.84549 0,-1.38438 0.70146,-1.6814 3.35745,-1.42164 1.84659,0.1806 3.10741,-0.0762 2.80182,-0.57065 -0.30559,-0.49446 0.39226,-2.44222 1.55077,-4.32836 l 2.10639,-3.42935 1.2525,3 1.25249,3 0.33929,-3.5 c 0.28035,-2.89203 0.73013,-3.48621 2.58929,-3.4206 2.85694,0.10082 2.94474,-2.22412 0.11787,-3.12134 -1.54849,-0.49147 -1.78234,-0.89289 -0.85428,-1.46646 0.70281,-0.43436 1.00693,-1.49576 0.6758,-2.35865 -0.33112,-0.8629 -0.1717,-1.83487 0.35428,-2.15994 0.80606,-0.49817 1.38664,1.38548 1.1212,3.63764 -0.0396,0.33586 0.96552,1.08336 2.23356,1.66112 2.08701,0.9509 2.31245,0.79824 2.37851,-1.61065 0.13373,-4.87659 1.46925,-9.40731 3.31793,-11.25599 1.77176,-1.77176 1.84904,-1.72102 2.47703,1.62645 0.35652,1.9004 0.36512,4.58323 0.0191,5.96185 C 212.10608,16.94062 212.27089,18 212.85925,18 c 0.56048,0 1.02594,-2.1375 1.03436,-4.75 0.008,-2.6125 0.45153,-5.425 0.98469,-6.25 0.8354,-1.29269 0.97149,-1.26629 0.98469,0.19098 0.008,0.93004 0.50057,1.99089 1.09367,2.35745 0.71003,0.43882 0.9662,-0.47019 0.75,-2.66129 -0.24976,-2.53115 0.0906,-3.41225 1.42164,-3.68077 1.37163,-0.27669 1.75,0.32948 1.75,2.80364 0,2.08354 0.42494,3.01331 1.25,2.73501 0.6875,-0.23191 1.25,-1.50691 1.25,-2.83334 0,-1.86931 0.56223,-2.44245 2.5,-2.54849 2.06739,-0.11314 5.34777,0.93691 6.83102,2.18662 C 233.51484,6.22849 230.66201,10 229.34312,10 c -0.80565,0 -1.46482,0.40185 -1.46482,0.89301 0,1.3885 2.90626,2.16862 5.57946,1.49769 1.47025,-0.36901 2.42054,-0.17236 2.42054,0.50089 0,0.60963 -0.39249,1.10841 -0.87219,1.10841 -0.47971,0 -1.20432,1.9125 -1.61025,4.25 l -0.73805,4.25 -1.32962,-3.09559 C 229.97661,16.25768 226.04636,13 223.60154,13 c -0.74092,0 -2.37502,1.39031 -3.63134,3.08957 -2.02335,2.73672 -2.16702,3.56473 -1.25805,7.25 0.5644,2.28824 0.78105,5.39355 0.48145,6.90069 -0.45172,2.27237 -0.93798,2.64156 -2.84785,2.16221 -1.68295,-0.42239 -2.60399,-0.0159 -3.42047,1.50974 -1.48315,2.77131 -2.34284,2.64493 -6.43214,-0.94553 -3.28737,-2.88634 -3.5192,-2.94372 -4.7848,-1.18414 -0.73152,1.01704 -2.16822,2.16236 -3.19266,2.54515 -1.60392,0.59931 -1.67337,0.92396 -0.5,2.33737 1.83372,2.20888 1.90507,6.56521 0.0962,5.87106 -2.30415,-0.88419 -7.40937,2.33449 -6.79134,4.28173 0.36092,1.13718 -0.2093,2.045 -1.69468,2.698 -3.11402,1.36898 -5.35774,6.27737 -3.92109,8.57782 1.47801,2.36667 0.35133,12.07292 -1.58034,13.61448 -1.1937,0.95263 -1.37292,2.45411 -0.84739,7.09918 0.39418,3.48407 0.22877,7.04234 -0.40485,8.70888 -0.62498,1.64381 -0.69471,3.06074 -0.16738,3.40082 0.49719,0.32063 1.2152,1.58048 1.59557,2.79966 0.56755,1.81908 0.22579,2.3336 -1.90533,2.86848 -3.76508,0.94497 -6.82564,7.32494 -5.85282,12.20064 0.40758,2.04281 0.64542,4.06528 0.52853,4.49439 -0.1169,0.4291 0.46699,2.09426 1.29752,3.70034 0.83054,1.60608 1.51007,4.18424 1.51007,5.72925 0,1.72611 0.77107,3.29066 2,4.05814 2.01166,1.2563 2.85081,6.23207 1.05103,6.23207 -0.52194,0 -0.28424,1.59094 0.52822,3.53542 1.28714,3.08057 1.29448,4.15067 0.0571,8.31748 -0.94373,3.17788 -1.10276,5.34913 -0.47409,6.4725 1.31523,2.35019 0.32698,3.49077 -2.54834,2.94112 -1.98117,-0.37872 -2.60687,-1.33023 -3.36418,-5.11589 l -0.93035,-4.65063 -1.15982,2.81547 c -0.79147,1.92129 -0.84391,3.40577 -0.16513,4.67408 0.81105,1.51546 0.22681,2.65726 -3.16454,6.18452 -2.28758,2.37926 -4.96313,5.64631 -5.94567,7.26012 -0.98254,1.6138 -2.37093,3.02954 -3.08532,3.14608 -0.71438,0.11654 -2.48729,0.52012 -3.93979,0.89684 -1.56739,0.40652 -2.91658,0.23888 -3.31909,-0.41239 z M 211.5676,10.24999 c -0.25153,-0.9625 -0.45733,-0.175 -0.45733,1.75 0,1.925 0.2058,2.7125 0.45733,1.75 0.25152,-0.9625 0.25152,-2.5375 0,-3.5 z" />
  <path
     inkscape:connector-curvature="0"
     id="path7027"
     style="fill:#ffffff;fill-opacity:1"
     d="m 365.5758,194.83235 c -2.2103,-2.4146 -3.3762,-2.94662 -5.5187,-2.51813 -3.0282,0.60564 -5.8013,-1.19201 -8.4666,-5.48839 -2.5975,-4.18705 -4.76,-4.25333 -11.2508,-0.34479 -3.2141,1.93542 -6.1249,3.51895 -6.4685,3.51895 -0.3435,0 -1.6334,-1.79491 -2.8664,-3.9887 l -2.2418,-3.98869 3.5576,-1.69652 c 1.9665,-0.93775 3.5577,-2.43886 3.5577,-3.35631 0,-2.29386 -3.1937,-4.96978 -5.9314,-4.96978 -3.6647,0 -11.8966,-5.17046 -13.1853,-8.28176 -0.6379,-1.54005 -2.02609,-3.90131 -3.08481,-5.24725 l -1.92493,-2.44715 -3.70241,1.88883 c -3.36309,1.71572 -3.96324,1.75217 -6.54832,0.39771 -1.82,-0.95359 -4.0531,-1.26465 -6.19474,-0.86287 -3.10829,0.58311 -3.48834,0.35616 -5.29116,-3.15963 -1.06828,-2.08334 -3.09725,-4.86579 -4.50882,-6.18324 -1.41158,-1.31745 -2.31276,-2.80592 -2.00263,-3.30772 0.31013,-0.5018 -0.599,-2.66957 -2.02028,-4.81727 -2.15385,-3.25469 -2.41515,-4.34941 -1.56922,-6.57436 1.44793,-3.80834 0.28476,-6.37332 -3.63237,-8.01 -1.872,-0.78217 -3.40364,-1.67323 -3.40364,-1.98014 0,-1.09367 2.77297,-3.30885 3.38095,-2.70086 0.57138,0.57137 1.0145,-1.20977 0.73747,-2.96429 -0.11793,-0.74687 0.65732,-0.95417 4.29326,-1.14806 1.05143,-0.0561 2.08295,-0.609 2.29227,-1.22873 0.52738,-1.56142 -2.49081,-2.55348 -4.52639,-1.48779 -2.10931,1.10428 -5.69886,-0.19555 -6.5314,-2.36512 -0.34762,-0.90589 -1.08521,-1.36698 -1.6391,-1.02467 -1.56726,0.96863 -1.23563,-0.77789 1.99294,-10.49563 3.29293,-9.91145 3.54263,-12.14497 1.88832,-16.89052 -0.80414,-2.30676 -2.44007,-3.86212 -5.91345,-5.62221 -3.79578,-1.92347 -4.69433,-2.84407 -4.28895,-4.39422 0.35123,-1.3431 -0.61082,-3.08461 -3.05322,-5.52702 -1.96132,-1.96132 -4.04228,-3.56603 -4.62437,-3.56603 -0.58208,0 -1.32833,-1.35 -1.65833,-3 -0.33,-1.65 -1.04885,-3 -1.59744,-3 -0.61498,0 -0.5784,-0.50492 0.0954,-1.31677 0.83887,-1.01077 -0.0429,-2.43544 -3.79453,-6.13063 -4.43789,-4.37117 -4.95028,-5.35608 -5.57166,-10.70993 -0.59741,-5.14733 -1.04611,-6.08316 -3.53337,-7.36937 -1.56698,-0.81031 -3.55765,-1.4733 -4.42371,-1.4733 -0.94962,0 -1.81282,-1.1908 -2.17466,-3 -0.33,-1.65 -0.93798,-3 -1.35107,-3 -0.90828,0 2.18634,-9.36012 3.25107,-9.83333 0.4125,-0.18334 0.75,-0.77798 0.75,-1.32143 0,-0.54345 0.71584,-1.70394 1.59075,-2.57885 1.26811,-1.26811 1.7534,-1.32758 2.39267,-0.29322 0.51484,0.83303 1.73531,1.06326 3.40925,0.64312 2.03204,-0.51001 2.60733,-0.28503 2.60733,1.01965 0,1.49538 0.18676,1.51499 1.75,0.18374 3.79636,-3.23296 8.06071,-4.11513 16.0329,-3.31673 8.39163,0.8404 16.78152,1.53567 19.32408,1.60137 0.88384,0.0228 3.02134,1.33334 4.75,2.91223 4.88773,4.46425 4.24283,11.29172 -1.58249,16.75372 -2.17205,2.03658 -8.1928,3.4922 -19.29207,4.66417 -0.83467,0.0881 -2.04487,0.48612 -2.68933,0.88442 -0.64446,0.3983 -3.11155,0.46064 -5.48242,0.13854 l -4.31067,-0.58563 4,2.55971 c 2.2,1.40784 6.3625,3.24926 9.25,4.09205 4.16996,1.2171 5.25,1.96231 5.25,3.62239 0,3.28719 8.02597,11.67485 11.30902,11.81864 0.44496,0.0195 0.48364,-0.49103 0.086,-1.1345 -0.51404,-0.83174 -0.16976,-0.92949 1.19099,-0.33816 1.05272,0.45748 3.48904,1.01393 5.41404,1.23656 2.73181,0.31593 3.77621,-0.0488 4.75847,-1.66184 1.83774,-3.01787 -0.34712,-6.35391 -3.75847,-5.73878 -3.62472,0.6536 -6.32134,-0.65273 -6.50542,-3.15145 -0.11988,-1.62715 0.39749,-2.17639 2.05009,-2.17639 1.21574,0 2.76023,0.66245 3.43219,1.47212 1.07572,1.29616 1.39771,1.29616 2.69388,0 0.80966,-0.80967 2.52747,-1.47212 3.81736,-1.47212 1.28988,0 2.51333,-0.50428 2.71877,-1.12061 0.20545,-0.61634 2.15545,-1.22314 4.33333,-1.34844 2.17789,-0.12531 5.05642,-0.57805 6.39674,-1.00611 2.30191,-0.73516 2.33581,-0.85223 0.61186,-2.11281 -1.29784,-0.94901 -2.36442,-1.04589 -3.69205,-0.33536 -1.32235,0.70769 -3.1884,0.55053 -6.39681,-0.53875 -2.49141,-0.84586 -5.23919,-1.53792 -6.10618,-1.53792 -1.27671,0 -1.44609,-0.7128 -0.89107,-3.75 0.37689,-2.0625 1.33605,-4.76051 2.13145,-5.99559 0.85751,-1.33151 1.19186,-3.25888 0.82138,-4.73496 -0.51968,-2.07058 -0.15758,-2.66702 2.15229,-3.54523 1.5274,-0.58072 3.33724,-0.8409 4.02188,-0.57818 1.90677,0.7317 2.59065,-2.31958 1.35741,-6.05634 -1.1526,-3.49239 -4.2161,-5.90952 -6.05186,-4.77495 -0.66504,0.41101 -0.93827,-0.22726 -0.72934,-1.70376 0.28203,-1.993 0.87962,-2.34454 3.8341,-2.25547 1.925,0.058 4.27044,0.43713 5.21208,0.84243 1.18529,0.51018 2.45134,-0.0607 4.11467,-1.85551 l 2.40259,-2.59244 43.13529,0 43.1354,0 0,97.96861 c 0,85.46937 -0.1863,97.89716 -1.4597,97.40849 -0.8028,-0.30807 -3.7452,-0.07 -6.5386,0.52912 -4.2209,0.90522 -5.482,0.82521 -7.4642,-0.47357 -2.1646,-1.41831 -2.668,-1.41655 -5.4441,0.019 -1.6824,0.87002 -4.9792,1.77541 -7.3262,2.01197 -3.7556,0.37853 -4.6033,0.063 -7.0697,-2.63129 z" />
  <path
     inkscape:connector-curvature="0"
     id="path7025"
     style="fill:#ffffff;fill-opacity:1"
     d="m 240.87827,127.93306 c 0,-1.47291 -0.70064,-1.93307 -2.9433,-1.93307 -3.71813,0 -6.0567,-3.15202 -6.0567,-8.16349 0,-2.04516 -0.42118,-3.97878 -0.93596,-4.29693 -0.51478,-0.31815 -2.10053,-2.95875 -3.5239,-5.868 l -2.58793,-5.28955 3.15261,-6.94102 c 3.57723,-7.87588 6.83408,-17.15193 6.87059,-19.56857 0.0135,-0.89515 0.70289,-2.19049 1.53192,-2.87853 1.31738,-1.09332 1.19135,-1.54382 -1,-3.57469 -1.37903,-1.27805 -2.50733,-2.79521 -2.50733,-3.37147 0,-0.57626 -0.3375,-0.99446 -0.75,-0.92933 -4.27454,0.67493 -5.28567,-0.37409 -9.75294,-10.11842 -5.07311,-11.06583 -6.9717,-13.43081 -13.35248,-16.63248 -7.45944,-3.74292 -7.56332,-3.83391 -6.76186,-5.92249 0.53522,-1.39475 1.1597,-1.17597 4.15833,1.45687 4.16099,3.6534 4.87884,3.76441 6.78105,1.04863 1.06214,-1.51642 2.0848,-1.88651 3.93189,-1.42292 2.22494,0.55842 2.55417,0.26478 3.02779,-2.70053 0.29227,-1.82989 0.0781,-5.20736 -0.47588,-7.50549 -0.84962,-3.52442 -0.71761,-4.57598 0.84341,-6.71857 2.1607,-2.96567 3.54159,-3.17927 6.79068,-1.05039 2.04842,1.34218 3.64218,4.44831 4.07779,7.94737 0.36096,2.89938 3.5791,8.5 4.88414,8.5 0.82719,0 2.61235,0.50501 3.96703,1.12224 2.05937,0.93831 2.57237,2.06417 3.13008,6.86937 0.60168,5.18414 1.14738,6.22026 5.57063,10.577 2.71568,2.67484 4.44994,5.11026 3.88685,5.45827 -0.65558,0.40517 -0.47541,1.66647 0.50721,3.55075 0.83818,1.6073 1.52673,3.48487 1.53012,4.17237 0.003,0.6875 0.90616,1.25 2.00616,1.25 1.1,0 2,0.59896 2,1.33102 0,0.73206 1.16207,1.95294 2.58239,2.71307 2.05754,1.10117 2.47502,1.91887 2.05411,4.02339 -0.47339,2.36696 -0.0132,2.8826 4.4305,4.9639 4.17378,1.95489 5.14603,2.94761 6.14175,6.27104 1.2568,4.19482 1.26416,4.1561 -4.345,22.8544 -2.26624,7.55457 -2.34744,7.66491 -6.08033,8.26182 -2.08088,0.33275 -3.78342,0.98673 -3.78342,1.4533 0,0.46657 -1.575,2.51829 -3.5,4.55938 -1.925,2.0411 -3.5,4.0208 -3.5,4.39934 0,1.37574 -4.31105,3.33167 -8.10968,3.67938 -3.30156,0.30221 -3.89032,0.0636 -3.89032,-1.57697 z" />
  <path
     inkscape:connector-curvature="0"
     id="path7033"
     style="fill:#ffffff;fill-opacity:1"
     d="m 198.7311,194.27498 c 0.87596,-1.63675 0.60664,-2.38431 -1.52752,-4.23993 -1.53312,-1.33303 -2.16745,-2.51459 -1.55364,-2.89395 0.57054,-0.35261 1.17221,-0.86611 1.33705,-1.14111 0.41929,-0.69949 -3.38739,-7 -4.22931,-7 -1.3342,0 -5.9546,-9.01542 -5.76264,-11.2442 0.42934,-4.98506 0.0219,-5.9004 -2.11677,-4.7558 -1.1,0.5887 -2.03037,0.71703 -2.06749,0.28518 -0.0371,-0.43185 -0.25833,-2.24768 -0.49158,-4.03518 -0.23325,-1.7875 -0.026,-3.25 0.4605,-3.25 1.41591,0 2.18289,-3.02692 1.20827,-4.76846 -0.56161,-1.00354 -0.37243,-3.35119 0.5093,-6.3203 0.97939,-3.29796 1.11321,-5.48539 0.44336,-7.24721 -0.52768,-1.38792 -0.70526,-4.08972 -0.39462,-6.00399 0.44589,-2.7477 0.11924,-3.86201 -1.55147,-5.29251 -1.16395,-0.99661 -2.11627,-2.85935 -2.11627,-4.13943 0,-1.28008 -0.70818,-3.69689 -1.57374,-5.37069 -0.86555,-1.6738 -1.3602,-3.2568 -1.09922,-3.51778 0.26098,-0.26098 0.0301,-2.08407 -0.5131,-4.05131 -0.77944,-2.82289 -0.62112,-4.38951 0.7511,-7.43256 0.95629,-2.12067 2.25936,-3.85576 2.8957,-3.85576 0.63635,0 1.98549,-0.6058 2.99808,-1.34623 1.68746,-1.2339 1.71705,-1.59486 0.35464,-4.32587 -1.02379,-2.05224 -1.21187,-3.72186 -0.60429,-5.36429 0.48517,-1.31156 0.58257,-4.78229 0.21644,-7.71274 -0.50248,-4.02167 -0.30132,-5.74771 0.82039,-7.03948 1.94592,-2.24093 3.01782,-11.81608 1.58042,-14.11772 -1.56223,-2.50154 0.96934,-7.49088 4.021,-7.92476 1.89451,-0.26936 2.21868,-0.76941 1.73865,-2.68198 -0.61551,-2.4524 1.52242,-3.90621 5.82654,-3.96209 2.44395,-0.0317 2.95811,-4.32547 0.81127,-6.77484 -2.46691,-2.81454 0.31686,-2.21523 8.50644,1.83132 6.08246,3.0054 7.57356,4.2517 9.27228,7.75 1.11333,2.29277 2.66571,5.29368 3.44972,6.66868 0.78401,1.375 2.38248,4.48298 3.55217,6.90663 2.10618,4.36413 2.10794,4.42538 0.18294,6.35039 -1.62161,1.6216 -2.30797,1.74883 -4.14129,0.76767 -2.04056,-1.09207 -2.11739,-1.02634 -1.07559,0.92028 0.61707,1.153 0.81486,2.59323 0.43954,3.20051 -1.4178,2.29404 -1.31219,10.30522 0.15725,11.92893 2.42519,2.6798 -0.19265,8.70377 -7.73299,17.79457 -0.62452,0.75295 -1.24698,2.38452 -1.38323,3.62572 -0.13624,1.2412 -0.685,3.10016 -1.21946,4.13101 -1.39953,2.69944 -0.74047,13.23271 1.10373,17.64008 0.86666,2.07118 2.38324,4.10704 3.37018,4.52412 3.55828,1.50375 9.29443,5.42797 9.29443,6.35853 0,0.52298 -0.6509,2.20958 -1.44645,3.748 -0.79554,1.53842 -1.19782,3.74785 -0.89395,4.90986 0.39763,1.52057 -0.32968,2.91847 -2.59494,4.98746 -3.06968,2.80372 -3.12098,2.99274 -2.07667,7.65263 0.65594,2.92696 0.71452,5.21871 0.1512,5.91576 -0.56082,0.69396 -0.53722,3.28346 0.0605,6.63785 1.26987,7.12654 -0.71652,12.51533 -4.95663,13.44662 -3.30589,0.72609 -5.84036,4.12874 -4.38315,5.88458 1.55503,1.87369 -1.01416,4.41951 -5.26484,5.21694 -3.57677,0.67101 -3.74173,0.59442 -2.74223,-1.27315 z m 27.37037,-26.68447 c -0.71775,-1.57529 -0.78725,-2.74192 -0.18549,-3.11383 0.52926,-0.3271 1.01449,-1.58067 1.07829,-2.78571 0.10749,-2.03027 0.15206,-2.04428 0.60761,-0.19098 0.27038,1.1 0.85602,2.45132 1.3014,3.00294 0.44539,0.55162 0.25544,2.03878 -0.42212,3.30481 l -1.23192,2.30186 -1.14777,-2.51909 z" />
  <path
     inkscape:connector-curvature="0"
     id="path7039"
     style="fill:#ffffff;fill-opacity:1"
     d="m 176.03592,207.93466 c -1.2883,-0.5162 -2.7508,-0.68612 -3.25,-0.37759 -0.49921,0.30852 -0.90765,-0.78878 -0.90765,-2.43847 0,-1.64968 -1.125,-6.11818 -2.5,-9.93 -2.9036,-8.04946 -3.1388,-11.59881 -0.88791,-13.39918 0.88664,-0.70919 3.41516,-3.01342 5.61891,-5.12051 4.77456,-4.56514 6.11805,-3.86066 4.9153,2.57738 -0.93474,5.00343 -0.12602,6.7537 3.12059,6.7537 1.6538,0 1.45976,0.76672 -1.7,6.71728 -3.78485,7.12774 -4.53198,11.6984 -2.06689,12.64435 0.825,0.31658 1.5,1.26472 1.5,2.10699 0,1.73167 -0.52485,1.79534 -3.84235,0.46605 z" />
  <path
     inkscape:connector-curvature="0"
     id="path7045"
     style="fill:#ffffff;fill-opacity:1"
     d="m 16.37827,97.00636 c -2.2,-1.09563 -4.7833,-3.37443 -5.74067,-5.06399 C 9.68023,90.2528 8.47645,89.13029 7.96254,89.44791 7.44862,89.76553 5.83267,89.48071 4.37155,88.81497 1.86955,87.67499 1.83228,87.56115 3.73102,86.85876 5.68854,86.13462 5.65876,85.94986 2.70541,80.49709 1.03248,77.40835 -0.17551,74.73153 0.02099,74.54858 c 0.19651,-0.18294 2.51081,-1.2e-4 5.1429,0.40627 2.63209,0.40638 5.02115,0.35779 5.30902,-0.10799 0.28787,-0.46578 -0.008,-0.84687 -0.65807,-0.84687 -0.90325,0 -0.90592,-0.332 -0.0113,-1.40991 0.92823,-1.11845 0.70083,-1.7386 -1.10006,-3 -1.2486,-0.87455 -3.32161,-1.59009 -4.60669,-1.59009 -1.28508,0 -2.07055,-0.43035 -1.74547,-0.95633 0.32507,-0.52598 1.32975,-0.67285 2.23262,-0.32639 1.18471,0.45462 1.47986,0.20848 1.0605,-0.88435 -0.3196,-0.83287 -0.20399,-2.12446 0.25691,-2.87021 0.65774,-1.06425 1.28908,-0.82965 2.93512,1.09069 l 2.09713,2.44659 -0.43968,-3.24535 c -0.60261,-4.44804 0.73794,-4.87023 2.87339,-0.90493 1.40712,2.61285 1.5396,3.72833 0.64199,5.40552 -1.41412,2.64231 -1.4774,7.24476 -0.0996,7.24476 0.56727,0 1.29041,-0.675 1.60699,-1.5 0.31659,-0.825 1.17214,-1.5 1.90123,-1.5 0.72909,0 1.63797,-0.98412 2.01973,-2.18694 0.5917,-1.86428 0.85984,-1.96746 1.81739,-0.69934 0.93905,1.24362 1.53331,1.27911 3.62328,0.21641 2.28927,-1.16404 2.57024,-1.06295 3.33333,1.19934 0.45834,1.35879 1.29398,2.47053 1.85699,2.47053 0.56301,0 0.76464,-0.675 0.44805,-1.5 -0.58455,-1.52333 0.48005,-2.04825 1.69336,-0.83493 0.36579,0.36578 1.81271,0.78742 3.21538,0.93697 1.96592,0.2096 2.78146,-0.33604 3.55902,-2.38118 0.78639,-2.06838 1.2019,-2.3405 1.8853,-1.23472 0.48213,0.7801 0.67701,1.74132 0.43306,2.13604 -0.24395,0.39472 0.77952,1.67973 2.27438,2.85559 2.20484,1.73433 2.50996,2.45736 1.61631,3.83008 -0.85036,1.30621 -0.66135,2.417 0.82871,4.87022 2.05386,3.38147 1.69926,8.32193 -0.59731,8.32193 -0.68013,0 -2.00019,0.84375 -2.93346,1.875 -0.93327,1.03125 -2.81792,1.875 -4.18812,1.875 -1.3702,0 -3.3402,0.76827 -4.37778,1.70727 -1.30622,1.18211 -3.19547,1.61276 -6.14188,1.40002 -2.70763,-0.19549 -4.40387,0.13829 -4.66368,0.91773 -0.57025,1.71075 -2.11724,1.53437 -6.74166,-0.76865 z" />
  <path
     inkscape:connector-curvature="0"
     id="path7035"
     style="fill:#ffffff;fill-opacity:1"
     d="m 38.12827,406.6586 c -4.69729,-1.15247 -4.88774,-1.52468 -2.82302,-5.5174 0.86995,-1.6823 1.09237,-3.30089 0.56977,-4.14646 -0.4907,-0.79398 -0.43971,-2.16707 0.11927,-3.21153 1.14799,-2.14505 0.22801,-4.12922 -1.59092,-3.43123 -1.90353,0.73046 -3.94423,-3.68515 -2.76231,-5.97699 0.53183,-1.03125 0.76526,-2.4375 0.51875,-3.125 -0.24651,-0.6875 -0.003,-1.25 0.5401,-1.25 1.38892,0 5.77619,-7.80742 6.74323,-12 0.44402,-1.925 0.83606,-6.425 0.87122,-10 0.0585,-5.95236 0.25306,-6.52687 2.30897,-6.8189 1.60063,-0.22737 2.08894,0.0879 1.70118,1.0984 -0.43598,1.13614 0.90067,1.44398 6.73772,1.55177 6.2998,0.11634 7.51687,0.44015 9.02658,2.4016 2.2851,2.96886 2.30142,2.90931 -1.50784,5.50246 -2.75734,1.87706 -3.49174,3.23941 -4.58205,8.5 -1.81191,8.74218 -1.8224,8.76467 -4.08927,8.76467 -2.49867,0 -2.52567,0.67763 -0.17928,4.5 1.67054,2.72139 1.70508,3.28969 0.37187,6.11925 -1.06877,2.26833 -1.18755,3.62342 -0.43541,4.96742 0.82279,1.47023 0.54117,2.30517 -1.37714,4.083 -1.32628,1.22916 -2.41142,3.29132 -2.41142,4.58258 0,2.21226 -1.74131,4.92659 -2.95,4.59842 -0.3025,-0.0821 -2.4625,-0.61856 -4.8,-1.19206 z" />
  <path
     inkscape:connector-curvature="0"
     id="path7043"
     style="fill:#ffffff;fill-opacity:1"
     d="m 58.07444,416.70238 c -1.7579,-1.81368 -3.19617,-4.26316 -3.19617,-5.44329 0,-2.35904 -3.43133,-5.2591 -6.22251,-5.2591 -3.50223,0 -1.57651,-6.90033 2.28493,-8.18747 0.78564,-0.26188 0.76302,-1.10154 -0.0795,-2.95068 -0.94818,-2.08102 -0.87906,-3.16201 0.35473,-5.5479 1.41212,-2.73073 1.38245,-3.19181 -0.3781,-5.87562 -1.88868,-2.87912 -1.88769,-2.92077 0.0871,-3.65131 2.24784,-0.83153 2.28448,-0.91739 4.07069,-9.53702 0.71234,-3.4375 1.53984,-6.26618 1.83889,-6.28596 0.29904,-0.0198 1.78324,-1.05079 3.2982,-2.29114 2.51935,-2.06267 2.6474,-2.48654 1.5,-4.96554 -1.51156,-3.26581 -2.61406,-3.67566 -10.47002,-3.89217 -4.884,-0.13461 -5.97567,-0.4563 -5.5259,-1.62838 0.43879,-1.14348 -0.12555,-1.35995 -2.59903,-0.99692 -3.50583,0.51455 -3.57201,0.44936 -2.18154,-2.14876 0.73054,-1.36504 0.47753,-2.4636 -1,-4.34199 -1.0879,-1.38303 -1.97799,-3.06901 -1.97799,-3.74663 0,-1.78028 3.12319,-3.88374 5.82143,-3.92071 1.27678,-0.0175 3.03531,-0.74568 3.90783,-1.61821 1.07395,-1.07394 2.42376,-1.36999 4.17857,-0.91647 1.42569,0.36847 5.96717,1.02056 10.09217,1.44909 4.125,0.42852 8.85,1.34469 10.5,2.03591 1.65,0.69122 5.7,1.39193 9,1.55714 11.53669,0.57754 17.92454,1.53493 19.45618,2.91602 3.12079,2.81403 13.06318,5.79724 17.14539,5.14447 3.2912,-0.52629 4.2115,-0.2549 5.96172,1.75803 1.88975,2.17341 2.71347,2.35234 9.47294,2.0578 4.07176,-0.17743 7.66839,0.10649 7.9925,0.63091 0.32412,0.52443 0.0969,0.95351 -0.5049,0.95351 -0.77799,0 -0.79015,0.56811 -0.0421,1.96586 0.88026,1.64479 0.60019,2.24658 -1.71482,3.68462 -1.5218,0.94532 -3.66691,2.45689 -4.76691,3.35904 -1.1,0.90216 -3.9628,2.25771 -6.36179,3.01234 -3.03821,0.9557 -5.0862,2.4502 -6.7491,4.92509 -1.31302,1.95418 -3.96272,5.73969 -5.88821,8.41224 -4.41375,6.12621 -4.7877,11.09738 -0.9658,12.83876 l 2.53511,1.15507 -3.07909,1.94954 c -3.37777,2.13865 -7.46963,9.11418 -6.38032,10.87673 0.46102,0.74593 -0.16626,0.94768 -1.91007,0.61433 -1.98383,-0.37923 -3.28257,0.23546 -5.50397,2.60501 -1.5991,1.70575 -3.18052,3.88128 -3.51425,4.83451 -0.37175,1.06179 -1.20744,1.50265 -2.15739,1.13813 -0.85282,-0.32726 -2.12275,-0.12017 -2.82207,0.46021 -0.84463,0.70099 -2.60281,0.74655 -5.23726,0.13573 -2.18119,-0.50572 -5.61598,-0.93023 -7.63289,-0.94335 -4.17247,-0.0272 -11.69553,2.90076 -13.71951,5.33951 -1.96739,2.37056 -3.32587,2.04436 -6.91722,-1.66098 z m 67.80383,-27.64337 c 0,-0.58246 0.45,-1.05902 1,-1.05902 1.28138,0 1.28138,0.70806 0,1.5 -0.55,0.33992 -1,0.14148 -1,-0.44098 z m 13.60268,-5.60381 c -1.04353,-0.76513 -2.28103,-1.154 -2.75,-0.86416 -0.46897,0.28984 -0.85268,0.15867 -0.85268,-0.29149 0,-1.57676 3.91985,-3.26475 5.88092,-2.53248 1.67297,0.62471 1.78975,1.05378 0.79092,2.9061 -1.03952,1.92778 -1.38608,2.01609 -3.06916,0.78203 z m 8.89732,-6.45521 c 0.79968,-1.29391 2.5,-1.29391 2.5,0 0,0.55 -0.70156,1 -1.55902,1 -0.85746,0 -1.2809,-0.45 -0.94098,-1 z" />
  <path
     inkscape:connector-curvature="0"
     id="path7041"
     style="fill:#ffffff;fill-opacity:1"
     d="m 190.07246,354.14423 c -3.89698,-4.09408 -4.01607,-6.41327 -0.5094,-9.91994 l 2.68479,-2.68479 1.33247,3.26551 c 0.93588,2.29359 1.0875,4.66878 0.5094,7.98025 l -0.82307,4.71473 -3.19419,-3.35576 z m -62.07462,-6.46912 c -1.60271,-1.60271 -3.24935,-1.97956 -8.30919,-1.90165 -6.29558,0.0969 -15.44689,-2.42092 -18.2224,-5.01364 -1.09377,-1.02173 -1.08147,-1.40971 0.0714,-2.25271 1.87754,-1.37289 4.31413,-10.87413 4.32876,-16.87956 0.0103,-4.21702 0.21365,-4.70499 1.51187,-3.62756 1.21995,1.01247 1.5,0.96484 1.5,-0.25511 0,-0.825 -0.675,-2.0602 -1.5,-2.74489 -0.825,-0.68469 -1.5,-2.75323 -1.5,-4.59676 0,-2.69488 -0.57414,-3.64878 -2.92913,-4.86659 -2.93215,-1.51628 -4.71112,-4.69169 -3.61869,-6.45928 0.3197,-0.51729 -0.37503,-1.61035 -1.54386,-2.42903 -1.16882,-0.81868 -1.87575,-1.89203 -1.57094,-2.38522 0.73825,-1.19451 -11.08509,-6.57391 -12.90978,-5.87371 -0.78518,0.3013 -1.4276,0.37375 -1.4276,0.16099 0,-0.21275 -0.30147,-1.17245 -0.66994,-2.13266 -0.45675,-1.19028 -0.29765,-1.51574 0.5,-1.02277 1.72015,1.06311 1.42849,-1.4518 -0.40309,-3.47566 -1.44241,-1.59385 -1.40163,-1.79258 0.49105,-2.39329 1.13525,-0.36031 2.48035,-0.39785 2.98912,-0.0834 0.50876,0.31443 2.15567,0.10381 3.65979,-0.46806 2.26163,-0.85987 3.10061,-0.69606 4.84937,0.94682 1.39333,1.30896 2.58884,1.69349 3.50491,1.12733 0.76466,-0.47259 2.88522,-0.67384 4.71236,-0.44721 3.23584,0.40134 3.29563,0.34249 2.30344,-2.26718 -0.56025,-1.47356 -0.78939,-3.27661 -0.50921,-4.00676 C 103.58627,273.5974 103.37958,273 102.8469,273 c -1.4977,0 -1.14363,-2.71886 0.43284,-3.32381 0.83388,-0.31999 1.60639,0.24584 1.90746,1.39713 0.30469,1.16514 1.07097,1.71813 1.92609,1.38999 0.78105,-0.29971 2.67743,-0.0669 4.21418,0.51737 2.94074,1.11807 6.11841,-0.25327 4.95371,-2.13779 -0.86308,-1.3965 1.33086,-3.55934 4.38812,-4.32591 3.94266,-0.98857 6.20898,-3.90738 6.20898,-7.99661 0,-2.75374 0.52557,-3.80271 2.31342,-4.61731 1.97707,-0.90081 2.80221,-0.59747 5.67531,2.08642 1.84905,1.72726 4.63301,3.79779 6.18659,4.60118 1.55357,0.80338 2.82468,1.89914 2.82468,2.43502 0,0.53588 0.88631,0.97432 1.96958,0.97432 1.08327,0 3.57196,0.9 5.53042,2 1.95846,1.1 4.88131,2 6.49523,2 1.91095,0 3.30772,0.69756 4.00477,2 0.66375,1.24022 2.10169,2.00418 3.78518,2.01101 1.49315,0.006 4.34052,0.2799 6.3275,0.60855 l 3.61267,0.59756 -1.86267,4.90216 c -1.02448,2.6962 -1.86268,6.25699 -1.86268,7.91289 0,2.15632 -0.64177,3.30312 -2.26148,4.0411 -2.11089,0.96179 -5.73852,5.99586 -5.73852,7.96336 0,0.481 -1.12993,2.5396 -2.51096,4.57466 -1.38103,2.03507 -2.30025,3.91084 -2.0427,4.16838 0.25754,0.25755 2.06356,-0.47298 4.01337,-1.62339 1.9498,-1.15042 4.21902,-1.83306 5.04269,-1.51698 1.64038,0.62947 2.04012,3.90737 0.5861,4.80601 -0.53264,0.32918 -0.43445,1.82721 0.23622,3.604 0.9118,2.41565 0.87239,3.21084 -0.19175,3.86851 -1.0264,0.63435 -1.08161,1.30963 -0.23622,2.88926 0.60679,1.13379 1.10325,3.18689 1.10325,4.56245 0,1.93742 0.76753,2.77856 3.40603,3.73265 3.92114,1.4179 3.80138,2.48794 -0.91221,8.15051 -4.43431,5.32706 -7.04083,5.98981 -14.46705,3.67851 -3.41273,-1.06216 -7.31221,-1.9312 -8.66552,-1.9312 -5.76562,0 -10.89415,5.24619 -9.67732,9.89935 0.35445,1.3554 0.0645,2.13767 -0.8173,2.20499 -7.80368,0.59578 -8.86294,0.45491 -10.74706,-1.42922 z" />
  <path
     inkscape:connector-curvature="0"
     id="path7037"
     style="fill:#ffffff;fill-opacity:1"
     d="m 74.72255,261.88259 c -1.04618,-0.66304 -0.96722,-0.85537 0.35603,-0.86729 0.93517,-0.008 2.06017,-0.62462 2.5,-1.36933 0.43983,-0.7447 1.81219,-1.88554 3.04969,-2.53518 1.2375,-0.64964 2.25,-1.8245 2.25,-2.6108 0,-1.97043 3.19541,-3.5 7.31181,-3.5 3.31794,0 6.35103,-2.00383 5.03106,-3.3238 -0.35188,-0.35188 -1.67914,-0.37892 -2.94947,-0.0601 -1.50524,0.37779 -3.38149,-0.1835 -5.38703,-1.61158 -1.69255,-1.2052 -3.68155,-1.95942 -4.42001,-1.67604 -1.35602,0.52035 -3.58636,-1.0521 -3.58636,-2.52849 0,-0.44 0.70962,-0.8 1.57692,-0.8 0.86731,0 2.86202,-1.28509 4.43269,-2.85576 3.35011,-3.35011 3.38357,-6.77287 0.0625,-6.39574 -1.53496,0.17431 -1.95451,-0.12426 -1.40519,-1 0.43072,-0.68667 0.64289,-2.0991 0.47148,-3.13873 -0.24574,-1.49044 0.0768,-1.7262 1.52496,-1.11468 2.64826,1.11827 6.56486,0.70523 8.12718,-0.85709 0.74126,-0.74126 1.55658,-3.16555 1.81183,-5.3873 0.39272,-3.4184 0.18988,-4.01735 -1.31916,-3.89513 -1.42827,0.11568 -1.79618,-0.65181 -1.84824,-3.85557 l -0.065,-4 -5.685,0.12181 c -6.12207,0.13117 -6.78947,-0.51734 -3.70583,-3.60098 1.46647,-1.46647 1.82266,-2.76169 1.375,-5 -0.37759,-1.88791 -0.19403,-3.02083 0.48945,-3.02083 0.60148,0 0.87159,-0.57857 0.60024,-1.28571 -0.52771,-1.37518 -4.44386,-1.8158 -4.44386,-0.5 0,0.43214 -0.42378,0.78571 -0.94173,0.78571 -0.51796,0 -0.96187,-1.4625 -0.98647,-3.25 -0.0246,-1.7875 -0.0669,-4.15 -0.094,-5.25 -0.15394,-6.25635 1.02259,-13.02716 2.44431,-14.06674 0.86781,-0.63456 1.59215,-1.77914 1.60964,-2.5435 0.0676,-2.95535 2.55417,-4.59577 7.7182,-5.09184 4.54755,-0.43686 5.25,-0.26729 5.25,1.26731 0,0.97441 -1.61484,2.76967 -3.58853,3.98948 -2.74457,1.69625 -3.27373,2.43887 -2.25,3.15769 1.0455,0.73411 1.06488,1.0509 0.0885,1.44706 -0.6875,0.27897 -1.25,1.17685 -1.25,1.9953 0,1.26493 0.24226,1.24583 1.6154,-0.1273 1.2342,-1.2342 2.70905,-1.46942 6.25,-0.99678 7.59008,1.01311 7.48709,0.82808 4.14554,7.44766 -1.67185,3.31191 -3.53835,6.02166 -4.14778,6.02166 -0.79357,0 -0.7835,0.39105 0.0355,1.37786 0.90098,1.08561 0.69351,1.49554 -0.97817,1.93269 -1.2569,0.32869 -1.83565,1.01765 -1.41993,1.69032 0.38598,0.62451 1.33155,0.89381 2.10128,0.59844 0.76973,-0.29538 2.9956,0.86434 4.94639,2.57715 2.99817,2.63243 3.44918,3.55897 2.9154,5.98925 -0.51108,2.32697 -0.0838,3.39542 2.24111,5.60468 3.06386,2.91138 7.78659,9.22961 6.89892,9.22961 -0.2929,0 0.37823,2.12477 1.49141,4.72171 1.52203,3.55077 1.7778,5.26196 1.03135,6.90023 -1.33426,2.92838 -0.39623,3.60097 2.43495,1.74591 3.32404,-2.178 8.05834,0.0893 7.67969,3.67781 -0.4252,4.02975 -2.33856,7.85052 -4.23238,8.45159 -2.00463,0.63625 -2.15856,3.58729 -0.25073,4.80687 0.69186,0.44227 1.76274,0.49213 2.37973,0.11081 2.29321,-1.41729 0.16264,2.01833 -2.47107,3.98469 -2.04268,1.52508 -4.37763,2.05121 -9.51106,2.14312 -3.74206,0.067 -7.25907,0.40322 -7.81558,0.74716 -1.49789,0.92575 -7.58147,1.07935 -9.56821,0.24158 -1.2044,-0.50788 -2.60467,0.14761 -4.61953,2.16248 -2.47249,2.47248 -3.16363,2.71392 -4.77173,1.66694 -1.53247,-0.99775 -2.557,-0.8914 -5.53619,0.57468 -2.25475,1.10957 -4.17088,1.47249 -5,0.94702 z m -3.66233,-47.3826 c -1.2806,-2.81061 -2.95713,-3.24946 -3.82032,-1 -0.80433,2.09603 -2.09384,1.86889 -3.41607,-0.60173 -0.94967,-1.77447 -0.70136,-2.54372 1.59471,-4.9403 1.63639,-1.70803 2.48115,-3.45977 2.12101,-4.39827 -0.65594,-1.70935 0.8457,-2.16644 1.83872,-0.5597 0.33992,0.55 1.60398,1.00347 2.80902,1.0077 1.52005,0.005 2.92165,1.28675 4.57706,4.18457 l 2.38609,4.17687 -2.69185,2.31543 c -3.39267,2.91825 -3.99399,2.89769 -5.39837,-0.18457 z m 11.81805,2.05902 c 0,-0.24254 0.45,-0.7191 1,-1.05902 0.55,-0.33992 1,-0.14148 1,0.44098 0,0.58246 -0.45,1.05902 -1,1.05902 -0.55,0 -1,-0.19844 -1,-0.44098 z M 74.48526,179.4182 c -0.81275,-2.11798 -0.81038,-2.12618 0.78999,-2.7403 0.90267,-0.34639 1.56128,0.32343 1.86133,1.89301 0.52368,2.73946 -1.65772,3.43658 -2.65132,0.84729 z m -2.00666,-7.25588 c -0.89187,-1.44307 -0.0748,-2.83802 2.45536,-4.19214 2.46227,-1.31776 2.51027,0.10931 0.10365,3.08136 -1.26047,1.55661 -2.06709,1.90674 -2.55901,1.11078 z m 22.39967,-9.82738 c 0,-1.97326 2.4581,-4.33495 4.5119,-4.33495 1.83139,0 1.51233,2.42598 -0.34523,2.625 -2.44859,0.26235 -2.62751,0.43045 -1.33214,1.25158 1.01464,0.64317 0.83486,0.97661 -0.75,1.39106 -1.41825,0.37088 -2.08453,0.0728 -2.08453,-0.93269 z m 12.04389,-12.50162 c -0.0241,-0.91666 -0.51964,-1.82525 -1.10112,-2.01907 -1.56144,-0.52048 -0.22509,-3.04514 2.77551,-5.24354 2.60111,-1.90571 2.62338,-1.90571 1.82245,0 -0.44597,1.0611 -1.40532,3.50428 -2.1319,5.42928 -0.72657,1.925 -1.3408,2.75 -1.36494,1.83333 z" />
  <path
     inkscape:connector-curvature="0"
     id="path7023"
     style="fill:#ffffff;fill-opacity:1"
     d="m 74.72255,261.88259 c -1.04618,-0.66304 -0.96722,-0.85537 0.35603,-0.86729 0.93517,-0.008 2.06017,-0.62462 2.5,-1.36933 0.43983,-0.7447 1.81219,-1.88554 3.04969,-2.53518 1.2375,-0.64964 2.25,-1.8245 2.25,-2.6108 0,-1.97043 3.19541,-3.5 7.31181,-3.5 3.31794,0 6.35103,-2.00383 5.03106,-3.3238 -0.35188,-0.35188 -1.67914,-0.37892 -2.94947,-0.0601 -1.50524,0.37779 -3.38149,-0.1835 -5.38703,-1.61158 -1.69255,-1.2052 -3.68155,-1.95942 -4.42001,-1.67604 -1.35602,0.52035 -3.58636,-1.0521 -3.58636,-2.52849 0,-0.44 0.70962,-0.8 1.57692,-0.8 0.86731,0 2.86202,-1.28509 4.43269,-2.85576 3.35011,-3.35011 3.38357,-6.77287 0.0625,-6.39574 -1.53496,0.17431 -1.95451,-0.12426 -1.40519,-1 0.43072,-0.68667 0.64289,-2.0991 0.47148,-3.13873 -0.24574,-1.49044 0.0768,-1.7262 1.52496,-1.11468 2.64826,1.11827 6.56486,0.70523 8.12718,-0.85709 0.74126,-0.74126 1.55658,-3.16555 1.81183,-5.3873 0.39272,-3.4184 0.18988,-4.01735 -1.31916,-3.89513 -1.42827,0.11568 -1.79618,-0.65181 -1.84824,-3.85557 l -0.065,-4 -5.685,0.12181 c -6.12207,0.13117 -6.78947,-0.51734 -3.70583,-3.60098 1.46647,-1.46647 1.82266,-2.76169 1.375,-5 -0.37759,-1.88791 -0.19403,-3.02083 0.48945,-3.02083 0.60148,0 0.87159,-0.57857 0.60024,-1.28571 -0.52771,-1.37518 -4.44386,-1.8158 -4.44386,-0.5 0,0.43214 -0.42378,0.78571 -0.94173,0.78571 -0.51796,0 -0.96187,-1.4625 -0.98647,-3.25 -0.0246,-1.7875 -0.0669,-4.15 -0.094,-5.25 -0.15394,-6.25635 1.02259,-13.02716 2.44431,-14.06674 0.86781,-0.63456 1.59215,-1.77914 1.60964,-2.5435 0.0676,-2.95535 2.55417,-4.59577 7.7182,-5.09184 4.54755,-0.43686 5.25,-0.26729 5.25,1.26731 0,0.97441 -1.61484,2.76967 -3.58853,3.98948 -2.74457,1.69625 -3.27373,2.43887 -2.25,3.15769 1.0455,0.73411 1.06488,1.0509 0.0885,1.44706 -0.6875,0.27897 -1.25,1.17685 -1.25,1.9953 0,1.26493 0.24226,1.24583 1.6154,-0.1273 1.2342,-1.2342 2.70905,-1.46942 6.25,-0.99678 7.59008,1.01311 7.48709,0.82808 4.14554,7.44766 -1.67185,3.31191 -3.53835,6.02166 -4.14778,6.02166 -0.79357,0 -0.7835,0.39105 0.0355,1.37786 0.90098,1.08561 0.69351,1.49554 -0.97817,1.93269 -1.2569,0.32869 -1.83565,1.01765 -1.41993,1.69032 0.38598,0.62451 1.33155,0.89381 2.10128,0.59844 0.76973,-0.29538 2.9956,0.86434 4.94639,2.57715 2.99817,2.63243 3.44918,3.55897 2.9154,5.98925 -0.51108,2.32697 -0.0838,3.39542 2.24111,5.60468 3.06386,2.91138 7.78659,9.22961 6.89892,9.22961 -0.2929,0 0.37823,2.12477 1.49141,4.72171 1.52203,3.55077 1.7778,5.26196 1.03135,6.90023 -1.33426,2.92838 -0.39623,3.60097 2.43495,1.74591 3.32404,-2.178 8.05834,0.0893 7.67969,3.67781 -0.4252,4.02975 -2.33856,7.85052 -4.23238,8.45159 -2.00463,0.63625 -2.15856,3.58729 -0.25073,4.80687 0.69186,0.44227 1.76274,0.49213 2.37973,0.11081 2.29321,-1.41729 0.16264,2.01833 -2.47107,3.98469 -2.04268,1.52508 -4.37763,2.05121 -9.51106,2.14312 -3.74206,0.067 -7.25907,0.40322 -7.81558,0.74716 -1.49789,0.92575 -7.58147,1.07935 -9.56821,0.24158 -1.2044,-0.50788 -2.60467,0.14761 -4.61953,2.16248 -2.47249,2.47248 -3.16363,2.71392 -4.77173,1.66694 -1.53247,-0.99775 -2.557,-0.8914 -5.53619,0.57468 -2.25475,1.10957 -4.17088,1.47249 -5,0.94702 z m -3.66233,-47.3826 c -1.2806,-2.81061 -2.95713,-3.24946 -3.82032,-1 -0.80433,2.09603 -2.09384,1.86889 -3.41607,-0.60173 -0.94967,-1.77447 -0.70136,-2.54372 1.59471,-4.9403 1.63639,-1.70803 2.48115,-3.45977 2.12101,-4.39827 -0.65594,-1.70935 0.8457,-2.16644 1.83872,-0.5597 0.33992,0.55 1.60398,1.00347 2.80902,1.0077 1.52005,0.005 2.92165,1.28675 4.57706,4.18457 l 2.38609,4.17687 -2.69185,2.31543 c -3.39267,2.91825 -3.99399,2.89769 -5.39837,-0.18457 z m 11.81805,2.05902 c 0,-0.24254 0.45,-0.7191 1,-1.05902 0.55,-0.33992 1,-0.14148 1,0.44098 0,0.58246 -0.45,1.05902 -1,1.05902 -0.55,0 -1,-0.19844 -1,-0.44098 z M 74.48526,179.4182 c -0.81275,-2.11798 -0.81038,-2.12618 0.78999,-2.7403 0.90267,-0.34639 1.56128,0.32343 1.86133,1.89301 0.52368,2.73946 -1.65772,3.43658 -2.65132,0.84729 z m -2.00666,-7.25588 c -0.89187,-1.44307 -0.0748,-2.83802 2.45536,-4.19214 2.46227,-1.31776 2.51027,0.10931 0.10365,3.08136 -1.26047,1.55661 -2.06709,1.90674 -2.55901,1.11078 z m 22.39967,-9.82738 c 0,-1.97326 2.4581,-4.33495 4.5119,-4.33495 1.83139,0 1.51233,2.42598 -0.34523,2.625 -2.44859,0.26235 -2.62751,0.43045 -1.33214,1.25158 1.01464,0.64317 0.83486,0.97661 -0.75,1.39106 -1.41825,0.37088 -2.08453,0.0728 -2.08453,-0.93269 z m 12.04389,-12.50162 c -0.0241,-0.91666 -0.51964,-1.82525 -1.10112,-2.01907 -1.56144,-0.52048 -0.22509,-3.04514 2.77551,-5.24354 2.60111,-1.90571 2.62338,-1.90571 1.82245,0 -0.44597,1.0611 -1.40532,3.50428 -2.1319,5.42928 -0.72657,1.925 -1.3408,2.75 -1.36494,1.83333 z" />
  <path
     inkscape:connector-curvature="0"
     id="path7021"
     style="fill:#ffffff;fill-opacity:1"
     d="m 176.03592,207.93466 c -1.2883,-0.5162 -2.7508,-0.68612 -3.25,-0.37759 -0.49921,0.30852 -0.90765,-0.78878 -0.90765,-2.43847 0,-1.64968 -1.125,-6.11818 -2.5,-9.93 -2.9036,-8.04946 -3.1388,-11.59881 -0.88791,-13.39918 0.88664,-0.70919 3.41516,-3.01342 5.61891,-5.12051 4.77456,-4.56514 6.11805,-3.86066 4.9153,2.57738 -0.93474,5.00343 -0.12602,6.7537 3.12059,6.7537 1.6538,0 1.45976,0.76672 -1.7,6.71728 -3.78485,7.12774 -4.53198,11.6984 -2.06689,12.64435 0.825,0.31658 1.5,1.26472 1.5,2.10699 0,1.73167 -0.52485,1.79534 -3.84235,0.46605 z m 12.71842,-2.18467 c -0.0682,-0.1375 -0.23427,-1.95319 -0.36913,-4.03486 -0.23927,-3.6935 1.331,-5.71514 4.43914,-5.71514 1.3866,0 0.18876,8.20666 -1.3479,9.23469 -1.09108,0.72993 -2.48491,0.99379 -2.72211,0.51531 z m -7.54083,-3.53166 c -0.86511,-0.54295 -0.80345,-1.22512 0.23967,-2.65167 1.72559,-2.35989 3.07828,-1.32743 1.83218,1.39843 -0.5334,1.16681 -1.38693,1.6831 -2.07185,1.25324 z M 75.89794,125.01214 c -1.24141,-0.76723 -1.19564,-1.0074 0.30148,-1.58189 2.08649,-0.80066 3.44889,0.1997 2.10382,1.54477 -0.56802,0.56802 -1.52247,0.58275 -2.4053,0.0371 z" />
  <path
     inkscape:connector-curvature="0"
     id="path7031"
     style="fill:#ffffff;fill-opacity:1"
     d="m 247.46179,400.82672 c -1.05407,-0.61185 -3.30407,-1.47385 -5,-1.91556 -10.97793,-2.85922 -17.30535,-6.52187 -15.0922,-8.73617 0.68172,-0.68208 4.33497,-1.21214 8.00868,-1.162 6.70576,0.0915 7.9409,-0.10203 9.46755,-1.48363 0.92946,-0.84116 2.352,-1.52937 3.16119,-1.52937 0.80919,0 2.01126,-0.54 2.67126,-1.2 1.61999,-1.61999 1.64062,2.13885 0.0311,5.67129 -1.0093,2.21516 -0.87278,2.84125 1,4.58601 2.58308,2.4065 2.68108,3.28763 0.59744,5.37127 -1.84201,1.84202 -2.29369,1.87914 -4.84505,0.39816 z m 8.09053,-18.51354 c 0.31285,-2.09725 1.30167,-4.40351 2.19738,-5.12502 1.47437,-1.18762 1.48022,-1.42433 0.0619,-2.5 -0.86168,-0.65349 -2.85278,-3.48799 -4.42465,-6.29888 -2.11834,-3.7881 -3.31986,-4.98991 -4.64282,-4.64395 -1.13017,0.29554 -2.86503,-0.71588 -4.72969,-2.75743 -1.61966,-1.7733 -3.36087,-2.96705 -3.86936,-2.65279 -0.50848,0.31426 -2.51746,-0.74165 -4.46438,-2.34647 -1.94693,-1.60482 -3.81306,-2.64466 -4.14697,-2.31075 -0.3339,0.33391 -1.30385,0.0289 -2.15543,-0.6779 -0.85158,-0.70675 -1.79476,-1.03857 -2.09596,-0.73738 -0.30119,0.30119 -3.32781,-1.05796 -6.72583,-3.02034 -3.39802,-1.96238 -7.75321,-4.40163 -9.67821,-5.42056 -4.30797,-2.28026 -9.83178,-8.17486 -11.57879,-12.35604 -1.19993,-2.87184 -4.42121,-6.56422 -4.42121,-5.0678 0,0.35352 -1.84917,-0.30061 -4.10927,-1.45363 l -4.10928,-2.09639 -4.26143,4.57607 c -4.64865,4.99187 -6.03979,5.67168 -5.22421,2.5529 0.41378,-1.5823 -0.21453,-2.33386 -2.88337,-3.44897 -2.47127,-1.03256 -3.41666,-2.06044 -3.42775,-3.72683 -0.008,-1.26557 -0.41713,-2.93577 -0.90823,-3.71155 -0.54698,-0.86406 -0.46578,-2.09447 0.20959,-3.17591 0.81157,-1.29953 0.78695,-2.45793 -0.0933,-4.38987 -1.13589,-2.493 -1.00785,-2.7019 2.55573,-4.16994 2.06334,-0.85 4.7418,-2.45989 5.95213,-3.57753 l 2.20061,-2.03206 3.54939,2.09419 3.54939,2.09419 0,-2.34926 c 0,-1.96487 0.47958,-2.32514 2.9311,-2.20184 1.6121,0.0811 3.2621,0.47842 3.66666,0.88298 1.41815,1.41815 2.63058,0.71674 2.12211,-1.22766 -0.28237,-1.07978 0.14643,-2.51084 0.95289,-3.18015 0.80646,-0.6693 1.24729,-2.05433 0.97964,-3.07785 -0.38006,-1.45336 -0.075,-1.7303 1.3927,-1.26445 1.03365,0.32806 2.89912,0.0507 4.1455,-0.61632 3.51738,-1.88245 8.56373,-1.98058 9.25469,-0.17998 0.43848,1.14266 1.55476,1.4113 4.32291,1.04033 3.72495,-0.49918 3.73165,-0.49345 3.65271,3.12078 -0.0435,1.99148 -0.156,4.17181 -0.25,4.84519 -0.16926,1.21252 -5.74448,4.65302 -7.67091,4.73376 -1.75495,0.0736 -1.79139,5.49287 -0.0414,6.16439 1.18768,0.45575 1.31584,0.94445 0.50415,1.92248 -2.29336,2.76333 3.57178,9.80676 10.29461,12.36278 1.38518,0.52665 3.58146,2.87934 4.8806,5.22821 2.50785,4.5342 9.4447,10.47021 13.39383,11.46138 1.3144,0.3299 3.73473,-0.0826 5.42136,-0.92404 3.17646,-1.58462 3.76536,-0.88426 2.01172,2.39246 -0.86109,1.60895 -0.70293,1.93426 0.9404,1.93426 1.08657,0 5.09435,1.125 8.90617,2.5 3.81182,1.375 7.64045,2.5 8.50807,2.5 2.36711,0 6.68054,4.43232 6.68054,6.86467 0,2.59187 -1.26748,2.72755 -3.59958,0.38533 -0.95833,-0.9625 -3.44434,-2.25878 -5.52446,-2.88063 -3.22928,-0.96539 -4.00813,-0.8808 -5.329,0.57874 -0.85083,0.94015 -1.54696,3.37258 -1.54696,5.40538 0,2.99771 0.46085,3.87123 2.4392,4.62339 1.34156,0.51006 2.97353,1.9258 3.62661,3.14609 0.99378,1.8569 0.891,2.43545 -0.63033,3.54786 -0.99976,0.73105 -2.23051,1.32917 -2.73502,1.32917 -0.5045,0 -0.6174,1.19481 -0.25088,2.65514 0.36652,1.46033 0.30281,2.92283 -0.14159,3.25 -0.44439,0.32717 -1.30622,1.49486 -1.91517,2.59486 -0.60895,1.1 -1.82278,2.14094 -2.69739,2.31319 -1.30586,0.25719 -1.48849,-0.36864 -1.02138,-3.5 z m -65.08366,0.93681 c -0.29941,-0.9625 -0.80492,-3.95855 -1.12335,-6.65788 -0.31843,-2.69934 -1.22878,-6.16449 -2.023,-7.70034 -1.79613,-3.47333 -1.79792,-3.89178 -0.0166,-3.89178 0.78508,0 2.31234,-1.125 3.39392,-2.5 4.58628,-5.8305 8.17866,-0.84219 8.17866,11.35672 0,7.3451 -0.147,7.9176 -1.91438,7.45542 -1.25991,-0.32947 -2.29755,0.21534 -3.03518,1.59362 -1.36615,2.55267 -2.73082,2.68844 -3.46005,0.34424 z" />
  <path
     inkscape:connector-curvature="0"
     id="path7019"
     style="fill:#ffffff;fill-opacity:1"
     d="m 151.84252,265.92574 c -1.2375,-0.61289 -2.25,-1.45764 -2.25,-1.87722 0,-0.41958 -0.88587,-0.76287 -1.96861,-0.76287 -2.43215,0 -13.65652,-7.58072 -14.50737,-9.798 -0.66666,-1.73729 3.53135,-5.72439 4.45981,-4.23574 0.99441,1.59441 4.54018,1.44586 7.16378,-0.30014 3.80734,-2.53375 8.02032,-1.70915 9.75334,1.909 0.77052,1.60869 2.00802,3.28474 2.75,3.72457 1.73394,1.02785 1.69548,2.51243 -0.15711,6.06462 -0.82161,1.57537 -1.49384,3.71287 -1.49384,4.75 0,2.08892 -0.46281,2.15381 -3.75,0.52578 z" />
  <path
     inkscape:connector-curvature="0"
     id="path7017"
     style="fill:#ffffff;fill-opacity:1"
     d="m 155.96279,251.36919 c -0.28835,-4.49321 -7.01968,-6.31978 -11.2175,-3.04391 -1.63327,1.27456 -3.01516,1.61186 -4.38486,1.07029 -1.1,-0.43494 -1.42167,-0.82243 -0.71482,-0.86108 0.70685,-0.0387 2.37412,-0.78379 3.70505,-1.65584 1.90935,-1.25106 2.2009,-1.9367 1.38199,-3.25 -2.30978,-3.70424 5.43575,-16.63718 10.51568,-17.55834 1.41851,-0.25723 2.99592,-0.72529 3.50536,-1.04014 1.58181,-0.97761 4.10674,0.55575 4.10674,2.49397 0,1.01527 -0.55721,3.06889 -1.23824,4.56359 -0.98432,2.16035 -0.98432,2.80228 0,3.13039 2.11422,0.70474 1.37138,2.77153 -1.85293,5.15537 -2.06993,1.53036 -2.93286,2.89083 -2.61196,4.11793 0.26357,1.00789 0.12566,3.32659 -0.30647,5.15266 -0.43212,1.82606 -0.83174,2.60236 -0.88804,1.72511 z" />
  <path
     inkscape:connector-curvature="0"
     id="path7015"
     style="fill:#ffffff;fill-opacity:1"
     d="m 187.55122,288.60899 c -2.0363,-1.64889 -2.75829,-1.70544 -7.16849,-0.56145 -2.69727,0.69966 -5.56153,1.01984 -6.36503,0.71151 -2.01139,-0.77184 -1.829,-4.35669 0.5386,-10.58589 1.09972,-2.8934 1.99972,-5.34598 2,-5.45018 2.7e-4,-0.10419 -3.10208,-0.49517 -6.89411,-0.86882 -5.78043,-0.56959 -7.09231,-1.04878 -8.11795,-2.9652 -0.67284,-1.2572 -0.91674,-2.78191 -0.54201,-3.38824 0.37474,-0.60633 -0.0691,-1.39039 -0.98635,-1.74237 -1.31371,-0.50411 -1.53896,-1.44494 -1.06121,-4.43258 0.34703,-2.17024 0.17237,-4.06091 -0.40831,-4.41979 -0.55813,-0.34495 -0.9408,-3.18461 -0.85039,-6.31036 0.14485,-5.00778 0.53259,-6.00363 3.26261,-8.37949 2.67551,-2.32843 2.93462,-2.96353 1.89917,-4.65485 -0.92415,-1.50951 -0.92936,-2.67305 -0.0227,-5.07497 0.9125,-2.41747 0.90107,-3.55716 -0.0509,-5.08158 -1.95556,-3.13133 -1.46543,-3.9923 2.27273,-3.9923 2.54801,0 3.5,0.4371 3.5,1.60699 0,0.98544 0.55517,1.39395 1.43539,1.05618 0.78947,-0.30295 1.66246,-0.0136 1.93997,0.64301 0.27752,0.6566 0.4191,-0.38091 0.31461,-2.30557 -0.15979,-2.94353 0.16979,-3.55056 2.07486,-3.8215 1.44634,-0.20569 1.99859,-0.748 1.52812,-1.5006 -0.40519,-0.64818 -0.87838,-1.85351 -1.05152,-2.67851 -0.62249,-2.966 -0.81002,-3.51978 -1.64478,-4.85713 -0.66482,-1.0651 -0.33599,-1.19166 1.52812,-0.58815 1.30638,0.42294 3.50023,0.91502 4.87523,1.09351 5.76989,0.74899 6.99199,1.01043 7.60938,1.62782 0.35757,0.35757 2.50424,0.415 4.77037,0.12762 2.26614,-0.28737 6.37025,-0.0119 9.12025,0.61219 2.75,0.62408 6.06468,1.24999 7.36595,1.39091 3.28603,0.35586 4.66222,3.1386 3.17088,6.41173 -0.96111,2.10942 -0.91306,2.79883 0.25458,3.65263 0.79162,0.57885 2.81317,3.77407 4.49234,7.10049 1.67918,3.32642 3.76477,6.63872 4.63465,7.36066 2.15901,1.79182 2.13266,5.49316 -0.0332,4.66205 -1.02821,-0.39456 -2.96178,0.59727 -5.32288,2.73039 -2.03946,1.84252 -6.01936,4.43572 -8.84423,5.76266 -5.63592,2.64739 -6.22686,3.45768 -3.21811,4.41262 1.1,0.34913 2,1.26274 2,2.03026 0,2.28265 7.93134,9.20601 11.32355,9.88445 l 3.14331,0.62866 -4.45742,3.83901 c -4.74742,4.08878 -4.72106,3.87958 -1.2794,10.15399 0.16181,0.295 -1.14384,0.64594 -2.90144,0.77987 -1.75761,0.13392 -3.67949,0.64505 -4.27085,1.13583 -0.59136,0.49078 -4.19008,1.61472 -7.99716,2.49765 -3.80708,0.88292 -7.45743,2.0497 -8.11189,2.59286 -0.81441,0.6759 -1.90451,0.40892 -3.45428,-0.84602 z" />
  <path
     inkscape:connector-curvature="0"
     id="path7013"
     style="fill:#ffffff;fill-opacity:1"
     d="m 156.55155,264.82172 c 0,-2.21425 0.22289,-2.36928 1.90022,-1.32177 2.06914,1.2922 1.73305,3.83024 -0.50721,3.83024 -0.82047,0 -1.39301,-1.03101 -1.39301,-2.50847 z" />
  <path
     inkscape:connector-curvature="0"
     id="path7011"
     style="fill:#ffffff;fill-opacity:1"
     d="m 170.60754,305.68651 c 0,-2.67161 -3.70081,-3.75257 -6.52102,-1.9047 -3.3337,2.18432 -4.01093,1.34025 -1.49298,-1.8608 1.1077,-1.40821 2.014,-3.26191 2.014,-4.11933 0,-2.59437 6.9596,-8.86943 9.19008,-8.28614 1.07378,0.2808 4.10955,-0.049 6.74615,-0.73296 4.22638,-1.09631 5.04655,-1.03886 6.9288,0.48529 1.17423,0.95084 2.13497,2.16165 2.13497,2.69069 0,0.52905 1.8,1.24974 4,1.60153 4.17127,0.66701 5.15129,2.41561 2.55944,4.56666 -0.80295,0.66639 -1.16269,1.93777 -0.81277,2.87244 0.52857,1.41187 0.38117,1.47661 -0.93269,0.40964 -0.85827,-0.69699 -2.29252,-0.98635 -3.18723,-0.64301 -0.95872,0.36789 -1.62675,0.11937 -1.62675,-0.6052 0,-0.9657 -0.32176,-0.96239 -1.5,0.0155 -0.825,0.68469 -1.5,1.85514 -1.5,2.60101 0,1.08361 -0.50236,1.12722 -2.5,0.21704 -1.375,-0.6265 -2.5,-1.60104 -2.5,-2.16566 0,-0.56461 -1.2375,0.15399 -2.75,1.5969 -3.61581,3.44945 -8.25,5.2813 -8.25,3.26114 z" />
  <path
     inkscape:connector-curvature="0"
     id="path7009"
     style="fill:#ffffff;fill-opacity:1"
     d="m 193.22642,291.20529 c -1.57943,-1.57944 -1.3776,-1.76358 3.23364,-2.9503 2.70502,-0.69614 7.16821,-1.96713 9.91821,-2.82441 2.75,-0.85728 5.9,-1.68527 7,-1.83997 2.34044,-0.32916 2.41378,-1.07705 0.48725,-4.96842 -1.38529,-2.79812 -1.315,-2.96993 2.5387,-6.2053 2.51867,-2.11456 4.31167,-2.97928 4.91874,-2.37221 0.52542,0.52542 2.20674,0.95531 3.73626,0.95531 2.13235,0 2.92729,-0.58307 3.40841,-2.5 0.65017,-2.59049 0.90889,-2.66613 9.91064,-2.89728 3.54154,-0.091 4.03964,0.18382 4.34582,2.39728 0.1902,1.375 0.76046,3.00546 1.26725,3.62325 1.13685,1.38584 0.0744,4.46191 -1.47685,4.27597 -3.41969,-0.40989 -3.93609,0.11195 -2.10882,2.13106 2.7274,3.01374 0.98774,6.93885 -4.22528,9.53331 -2.28274,1.1361 -4.74706,2.5395 -5.47628,3.11868 -0.72921,0.57917 -4.75985,1.35152 -8.95698,1.71632 -6.18788,0.53783 -7.73658,0.38851 -8.18863,-0.78952 -0.5986,-1.55991 -6.26303,-1.60298 -8.74906,-0.0665 -2.66076,1.64444 -9.80947,1.4363 -11.58302,-0.33724 z" />
  <path
     inkscape:connector-curvature="0"
     id="path7007"
     style="fill:#ffffff;fill-opacity:1"
     d="m 245.08288,148.55221 c 0.33385,-0.86998 0.60699,-1.76998 0.60699,-2 0,-0.23001 1.14083,-0.41821 2.53518,-0.41821 2.22531,0 2.40436,0.24446 1.46482,2 -1.30552,2.43939 -5.52974,2.82286 -4.60699,0.41821 z m 15.27716,0.91863 c -0.36859,-0.36859 -0.67017,-1.72017 -0.67017,-3.00351 0,-2.53508 -0.96439,-2.96894 -2.71287,-1.22046 -1.64047,1.64047 -3.08415,0.29667 -4.40014,-4.09572 -1.10096,-3.6747 -1.00192,-4.07875 1.72244,-7.02658 3.80372,-4.11573 9.79144,-7.17876 12.6389,-6.46545 1.23851,0.31026 3.12719,-0.0768 4.19744,-0.86026 1.4401,-1.05418 2.66391,-1.17398 4.70914,-0.46101 3.30344,1.15158 4.26372,3.56487 2.87349,7.22144 -0.85316,2.244 -0.60893,3.29813 1.47454,6.36422 1.37338,2.02112 2.49706,3.95196 2.49706,4.29075 0,0.3388 -1.77129,1.41473 -3.93621,2.39098 -2.90222,1.30871 -5.12259,1.59707 -8.45253,1.09771 -3.31422,-0.49699 -5.14909,-0.26266 -6.89362,0.8804 -1.30751,0.85672 -2.67887,1.25609 -3.04747,0.88749 z m -15.19716,-7.29317 c 0.32507,-0.52598 1.25163,-0.70283 2.05902,-0.39301 2.06711,0.79323 1.82352,1.34934 -0.59105,1.34934 -1.13246,0 -1.79305,-0.43035 -1.46797,-0.95633 z" />
  <path
     inkscape:connector-curvature="0"
     id="path7005"
     style="fill:#ffffff;fill-opacity:1"
     d="m 245.18209,172.93642 c -0.35805,-0.57934 -0.34524,-3.68789 0.0285,-6.90788 0.48342,-4.16516 1.32378,-6.45981 2.91228,-7.95212 l 2.23279,-2.0976 4.42971,2.89603 c 3.35211,2.19151 5.22034,2.77341 7.67972,2.39198 3.39238,-0.52613 4.12552,-1.61755 2,-2.97736 -0.6875,-0.43983 -1.7655,-2.24123 -2.39556,-4.00311 -1.04278,-2.91604 -0.92934,-3.3451 1.26446,-4.78253 1.78014,-1.16639 3.67153,-1.41175 7.23681,-0.9388 3.5619,0.4725 5.68131,0.19841 8.08759,-1.04593 3.16262,-1.63545 3.33374,-1.61769 5.68387,0.59015 1.33269,1.252 3.53965,4.27412 4.90434,6.71584 l 2.48128,4.43947 -3.94439,3.51898 c -4.5153,4.02831 -8.12486,4.75145 -15.78218,3.16184 -4.80965,-0.99846 -5.54602,-0.88767 -9.5,1.42936 -2.35742,1.38144 -6.19022,2.81612 -8.51734,3.18817 -2.32712,0.37205 -4.74472,1.29529 -5.37245,2.05166 -1.36493,1.64464 -2.54352,1.75525 -3.42941,0.32185 z" />
  <path
     inkscape:connector-curvature="0"
     id="path7003"
     style="fill:#ffffff;fill-opacity:1"
     d="m 267.53786,191.20721 c -1.46277,-0.76643 -2.65959,-1.81876 -2.65959,-2.33851 0,-0.51976 -1.07102,-1.64677 -2.38004,-2.50448 -2.09867,-1.3751 -2.86709,-1.39165 -6.5,-0.14001 -3.78748,1.30489 -4.11996,1.27962 -4.11996,-0.31312 0,-0.9529 -1.30841,-3.68072 -2.90757,-6.06182 l -2.90757,-4.32926 2.15757,-1.67633 c 1.18666,-0.92199 3.95757,-2.00005 6.15757,-2.39571 2.2,-0.39565 5.9288,-1.83937 8.28622,-3.20826 4.01155,-2.3294 4.64158,-2.41512 9.83179,-1.33763 3.05007,0.63319 6.56545,0.89529 7.81195,0.58243 3.44873,-0.86557 5.00616,3.17944 2.48639,6.45772 -1.02953,1.33944 -1.89189,4.01035 -1.91635,5.93535 -0.0513,4.03932 -2.0219,6.90485 -7.09041,10.31059 -3.26359,2.19293 -3.83251,2.28569 -6.25,1.01904 z" />
  <path
     inkscape:connector-curvature="0"
     id="path7001"
     style="fill:#ffffff;fill-opacity:1"
     d="m 244.87827,197.19963 c 0,-0.29819 0.7875,-1.4414 1.75,-2.54046 1.66667,-1.90315 1.66667,-1.96792 0,-1.36013 -0.9625,0.351 -1.73569,0.3148 -1.7182,-0.0804 0.0688,-1.55403 2.57136,-3.72692 4.4682,-3.87957 1.1,-0.0885 3.89615,-0.86817 6.21366,-1.73255 2.31752,-0.86439 4.91752,-1.30152 5.77778,-0.97141 1.90079,0.7294 3.81232,4.0644 3.04304,5.30912 -1.0931,1.76868 -19.53448,6.73003 -19.53448,5.25543 z" />
  <path
     inkscape:connector-curvature="0"
     id="path6999"
     style="fill:#ffffff;fill-opacity:1"
     d="m 253.93455,252.64801 c -0.72908,-1.91762 -1.77213,-2.68886 -3.78153,-2.79608 -1.52611,-0.0814 -3.67475,-0.19393 -4.77475,-0.25 -1.1,-0.0561 -1.8939,-0.64525 -1.76422,-1.30929 0.32212,-1.64944 -6.72604,-2.92644 -7.67523,-1.39061 -0.87877,1.42187 -4.06055,0.36485 -4.06055,-1.34897 0,-0.67812 -1.8,-1.827 -4,-2.55307 -2.2,-0.72607 -4,-1.86799 -4,-2.53761 0,-0.66963 -0.71295,-1.8092 -1.58434,-2.53239 -0.87139,-0.72318 -3.10549,-4.33548 -4.96468,-8.02733 -1.85918,-3.69185 -3.88235,-6.87979 -4.49593,-7.08432 -0.81154,-0.27051 -0.79463,-1.07632 0.062,-2.9565 0.95083,-2.08683 0.87714,-3.16573 -0.38262,-5.60183 -1.43333,-2.77175 -1.42091,-3.141 0.15264,-4.53902 0.9421,-0.83701 3.35704,-2.20056 5.36654,-3.03013 2.0095,-0.82956 3.91895,-2.33687 4.24322,-3.34958 0.61206,-1.91152 9.29693,-8.34129 11.2668,-8.34129 0.6173,0 1.37236,0.65147 1.6779,1.44771 0.93294,2.43121 6.56913,4.8713 8.17445,3.539 0.75479,-0.62641 4.383,-1.76885 8.0627,-2.53874 3.67969,-0.7699 8.59228,-2.32052 10.91686,-3.44583 2.32458,-1.12531 4.92248,-1.77895 5.77311,-1.45253 0.85062,0.32641 2.54587,2.91638 3.76722,5.75548 1.22135,2.83911 2.94331,5.69044 3.82658,6.3363 1.41835,1.03713 1.44566,1.61755 0.2338,4.96889 -1.28579,3.55579 -1.23759,3.88394 0.76579,5.21413 1.33854,0.88876 2.13793,2.46852 2.13793,4.22498 0,1.77242 0.88621,3.50255 2.40674,4.69859 3.22417,2.53614 3.33797,4.47517 0.75725,12.90306 -1.71311,5.59452 -1.96484,7.74257 -1.15649,9.86868 l 1.03324,2.71764 -6.27037,-0.66762 c -4.84624,-0.51599 -6.72461,-0.32305 -8.27037,0.84952 -1.1,0.83442 -2.73936,1.53144 -3.64301,1.54894 -0.90366,0.0175 -1.92148,0.75748 -2.26183,1.64442 -0.52088,1.35739 -0.87149,1.40293 -2.21521,0.28775 -1.34969,-1.12014 -1.80658,-1.03741 -2.95664,0.53539 -1.29113,1.76573 -1.41142,1.7257 -2.36703,-0.78774 z" />
  <path
     inkscape:connector-curvature="0"
     id="path8303"
     style="fill:#ffffff;fill-opacity:1"
     d="m 220.01749,267.99281 c -1.29844,-1.09605 -3.11156,-1.99282 -4.02916,-1.99282 -2.00736,0 -9.11006,-6.67724 -9.11006,-8.56436 0,-0.73494 -0.72026,-1.73934 -1.60058,-2.23199 -1.29398,-0.72415 -0.67145,-1.42948 3.25,-3.68223 2.66782,-1.53258 6.10289,-3.95024 7.63349,-5.37259 4.46095,-4.14543 11.11076,-3.75516 15.79278,0.92686 2.04786,2.04786 4.92431,2.58778 4.92431,0.92431 0,-1.67121 3.83555,-1.11627 4.8532,0.70217 0.52393,0.9362 2.23379,1.77817 3.79969,1.87106 1.56591,0.0929 3.85961,0.2269 5.09711,0.29782 2.8797,0.16504 3.04865,3.63116 0.25,5.12895 -1.1,0.5887 -2,1.7137 -2,2.5 0,0.7863 -1.0125,1.96283 -2.25,2.61452 -1.2375,0.65169 -2.49432,1.55581 -2.79294,2.00917 -0.29861,0.45335 -3.89861,0.94848 -8,1.10029 -7.05777,0.26124 -7.48409,0.40988 -7.96181,2.77602 -0.65226,3.23061 -4.61219,3.73106 -7.85603,0.99282 z" />
  <path
     inkscape:connector-curvature="0"
     id="path8301"
     style="fill:#ffffff;fill-opacity:1"
     d="m 277.4601,214.44295 c -1.63742,-1.20311 -1.74719,-1.78461 -0.75,-3.97322 1.57397,-3.45449 1.47186,-6.13922 -0.25875,-6.80332 -0.7848,-0.30116 -2.38733,-2.7118 -3.56116,-5.35699 l -2.13425,-4.80943 2.21979,-1.5 c 5.67778,-3.8367 8.90233,-8.10773 8.92478,-11.8212 0.0124,-2.04727 0.86327,-4.77327 1.9186,-6.14663 1.42643,-1.85626 1.64898,-2.93008 0.89806,-4.33318 -1.11689,-2.08694 1.00204,-5.19634 4.24183,-6.22461 0.99933,-0.31718 2.09035,-1.43803 2.42448,-2.49079 0.84345,-2.65749 6.46481,-3.58713 10.11765,-1.67321 2.58735,1.35565 3.18554,1.31785 6.58426,-0.41605 l 3.73836,-1.90717 1.45479,2.25642 c 0.80014,1.24103 2.01475,3.50515 2.69916,5.03137 1.4218,3.17073 10.3802,8.72505 14.0723,8.72505 2.609,0 4.8283,1.65527 4.8283,3.60122 0,0.66068 -1.6031,2.14704 -3.5623,3.30303 l -3.5623,2.1018 2.1899,3.89639 2.1899,3.89639 -2.6713,3.5023 c -1.9224,2.52035 -2.4989,4.18936 -2.0563,5.95284 0.5779,2.30254 0.3169,2.48586 -4.3207,3.03512 -2.7146,0.32151 -7.80924,1.76619 -11.32133,3.21041 -5.50163,2.26236 -7.26067,2.53589 -12.70685,1.97596 -5.2259,-0.53729 -7.26832,-0.26552 -11.78673,1.56837 -3.14823,1.27777 -5.97987,3.19135 -6.67875,4.51338 -1.0861,2.05456 -1.41432,2.1474 -3.13144,0.88575 z" />
  <path
     inkscape:connector-curvature="0"
     id="path8305"
     style="fill:#ffffff;fill-opacity:1"
     d="m 334.122,272.33563 c -0.6909,-0.27855 -0.9804,-0.95273 -0.6433,-1.49817 0.3371,-0.54544 1.2397,-3.67861 2.0058,-6.96261 l 1.393,-5.97091 -4.9996,-4.99959 c -2.7498,-2.74978 -4.9996,-5.42178 -4.9996,-5.93779 0,-0.51601 -1.7699,-2.10946 -3.9331,-3.541 -4.296,-2.84294 -7.54696,-2.6392 -8.55477,0.53612 -0.32458,1.02267 -1.6976,2.58502 -3.05115,3.4719 -1.35356,0.88689 -2.46101,2.24682 -2.46101,3.02208 0,0.77525 -1.00346,1.72804 -2.2299,2.1173 -1.22645,0.38926 -3.51047,2.07859 -5.07561,3.75407 -2.01843,2.16074 -3.06587,2.69009 -3.60306,1.82089 -0.52402,-0.84787 -1.50207,-0.94919 -3.1744,-0.32882 -4.80807,1.78359 -12.33069,2.18365 -14.21277,0.75583 -2.03676,-1.54517 -1.49949,-6.24341 0.93789,-8.20142 1.07882,-0.86665 1.16351,-1.75446 0.36719,-3.84896 -0.81065,-2.13216 -0.56028,-4.27306 1.15465,-9.87352 2.60212,-8.49777 2.48563,-10.5498 -0.73711,-12.98445 -5.0236,-3.79512 -2.47005,-10.60504 5.13388,-13.69125 4.34261,-1.76254 6.43541,-2.03272 11.61799,-1.49988 5.42178,0.55742 7.21066,0.28407 12.57183,-1.92109 3.43781,-1.41404 8.61285,-2.92224 11.49995,-3.35155 4.9994,-0.74338 5.2395,-0.91698 5.0403,-3.64461 -0.2241,-3.06817 3.0386,-8.55821 5.0861,-8.55821 0.6824,0 3.8704,-1.58353 7.0845,-3.51895 6.5358,-3.93564 8.7816,-3.84553 10.9984,0.44132 1.9616,3.79319 5.5757,5.98466 8.8405,5.36055 2.1038,-0.40217 3.3354,0.18616 5.709,2.72708 2.7494,2.94326 3.4007,3.18005 7.1136,2.58634 2.2478,-0.35945 5.4241,-1.34496 7.0582,-2.19003 2.6784,-1.385 3.2064,-1.38241 5.3564,0.0263 1.9822,1.29878 3.2433,1.37879 7.4642,0.47357 7.9245,-1.69952 7.9983,-1.59696 7.9983,11.12696 l 0,11.09594 -3.036,2.55456 c -1.6697,1.405 -3.6494,3.73845 -4.3993,5.18544 -1.9349,3.73367 -6.2119,8.13088 -7.9086,8.13088 -0.7916,0 -1.7389,1.19353 -2.105,2.65229 -0.6561,2.61418 -5.9152,8.34771 -7.6569,8.34771 -0.4918,0 -0.8942,0.45 -0.8942,1 0,0.55 -0.9,1 -2,1 -1.1494,0 -2,0.66667 -2,1.56739 0,1.11231 -0.5807,1.38308 -2,0.93261 -1.1183,-0.35492 -2,-0.1797 -2,0.39743 0,1.73673 -3.7018,3.14845 -6.0135,2.2933 -1.9411,-0.71807 -1.9999,-0.93475 -0.5744,-2.11777 2.2423,-1.86099 1.9789,-3.35258 -0.3701,-2.09543 -1.5808,0.846 -2.1656,0.66011 -3.0352,-0.96482 -0.5925,-1.10699 -1.5272,-2.01271 -2.0772,-2.01271 -0.6432,0 -0.6181,0.71358 0.07,2 0.5887,1.1 0.8295,2.05625 0.5352,2.125 -0.2944,0.0687 -0.9445,0.18125 -1.4447,0.25 -1.9278,0.26498 -5.0905,5.58579 -5.0905,8.56411 0,1.90532 -0.6075,3.35677 -1.5575,3.72132 -0.8566,0.32871 -1.3332,1.18215 -1.059,1.89653 0.558,1.45413 -7.4739,8.48728 -9.5518,8.36409 -0.7325,-0.0434 -1.897,-0.30685 -2.588,-0.58541 z" />
  <path
     inkscape:connector-curvature="0"
     id="path8299"
     style="fill:#ffffff;fill-opacity:1"
     d="m 331.3271,266.34164 c -0.7516,-5.19008 -1.9198,-7.34165 -3.9863,-7.34165 -1.43,0 -4.7823,-2.61466 -10.4527,-8.15277 l -3.74002,-3.65277 2.28451,-2.84723 2.28451,-2.84723 3.5377,1.88438 c 1.9457,1.03641 4.7663,3.6573 6.268,5.8242 1.5017,2.16691 4.0115,4.9425 5.5774,6.168 l 2.8471,2.22816 -1.4696,6.29934 c -0.8082,3.46463 -1.69,6.51981 -1.9595,6.78928 -0.2694,0.26946 -0.8054,-1.6888 -1.1911,-4.35171 z" />
  <path
     inkscape:connector-curvature="0"
     id="path8164"
     style="fill:#ffffff;fill-opacity:1"
     d="m 246.87827,272.10523 c -2.12803,-0.59194 -2.5,-1.28386 -2.5,-4.65032 0,-3.147 0.4615,-4.15737 2.25912,-4.94598 1.24252,-0.54508 2.5455,-1.89335 2.89552,-2.99616 0.76347,-2.40549 3.4651,-4.55681 4.73604,-3.77133 0.502,0.31026 1.5711,-0.29215 2.37578,-1.33867 1.02413,-1.33194 1.60362,-1.52778 1.93163,-0.65278 0.53383,1.42407 3.30191,1.7183 3.30191,0.35097 0,-0.49447 1.87506,-1.87637 4.16681,-3.0709 3.32026,-1.73061 5.1232,-2.04032 8.87424,-1.52442 l 4.70743,0.64743 -0.97944,3.85871 c -0.90495,3.56523 -1.16544,3.788 -3.42487,2.92896 -2.875,-1.09307 -9.29175,1.71862 -11.6695,5.11333 -0.80162,1.14448 -2.96885,2.88351 -4.81608,3.86453 -1.84722,0.98102 -3.94564,2.97565 -4.66316,4.43253 -1.32077,2.68178 -2.67423,3.01172 -7.19543,1.7541 z" />
  <path
     inkscape:connector-curvature="0"
     id="path8148"
     style="fill:#ffffff;fill-opacity:1"
     d="m 252.37827,293.79344 c -3.01663,-1.05447 -9.43366,-5.35904 -10.65661,-7.1485 -0.36114,-0.52842 -0.16121,-2.04806 0.44427,-3.37696 0.81759,-1.79441 0.79356,-2.90829 -0.0934,-4.32851 -1.55607,-2.49168 -1.50646,-2.99651 0.22904,-2.33054 0.81904,0.3143 1.90334,-0.35078 2.55401,-1.56656 0.90681,-1.6944 1.76354,-2.00257 4.32669,-1.55637 3.66528,0.63807 5.30908,-0.17649 5.83031,-2.88914 0.20112,-1.04672 2.06395,-2.78393 4.13961,-3.86046 2.07566,-1.07653 4.22821,-2.80615 4.78344,-3.8436 1.68752,-3.15317 8.40262,-6.04862 11.392,-4.91206 1.40285,0.53336 2.55063,0.73044 2.55063,0.43796 0,-0.29248 1.4625,0.28116 3.25,1.27475 1.7875,0.9936 3.41829,1.89983 3.62397,2.01384 0.20568,0.11402 -0.64898,1.91402 -1.89924,4 -1.25027,2.08599 -2.40502,4.9177 -2.56612,6.2927 -1.03736,8.85408 -1.70924,10.81595 -4.07297,11.89293 -1.33636,0.60889 -3.28201,1.10707 -4.32368,1.10707 -1.04166,0 -2.19981,0.49492 -2.57366,1.09983 -0.76502,1.23783 -12.42108,8.9436 -13.34334,8.82122 -0.32723,-0.0434 -1.94496,-0.55084 -3.59496,-1.1276 z" />
  <path
     inkscape:connector-curvature="0"
     id="path8142"
     style="fill:#ffffff;fill-opacity:1"
     d="m 299.62827,304.32133 c -0.9625,-0.2574 -1.75,-1.30843 -1.75,-2.33565 0,-1.02721 -0.47185,-2.15928 -1.04856,-2.5157 -0.72852,-0.45025 -0.72175,-1.04183 0.0222,-1.9382 0.82091,-0.98913 0.42392,-1.41579 -1.70144,-1.82863 -1.5247,-0.29616 -2.92218,-0.12552 -3.10551,0.37919 -0.61558,1.69465 -5.65434,0.96766 -6.87844,-0.99242 -0.65607,-1.05054 -2.67679,-2.236 -4.4905,-2.63436 -1.8137,-0.39835 -3.90831,-1.59613 -4.65468,-2.66173 -0.74638,-1.0656 -2.3214,-2.32661 -3.50005,-2.80226 -1.78382,-0.71986 -1.84136,-0.87543 -0.34334,-0.92819 0.98981,-0.0349 3.06531,-0.71788 4.61222,-1.51782 2.78374,-1.43953 3.31091,-2.90391 4.5164,-12.54557 0.17192,-1.375 1.53436,-4.6375 3.02764,-7.25 2.02823,-3.54838 3.3094,-4.75 5.06447,-4.75 1.29218,0 3.48777,-0.43281 4.87911,-0.96179 1.61946,-0.61572 2.74358,-0.61572 3.12412,0 1.02409,1.65702 3.31347,1.05043 3.9817,-1.05498 0.35206,-1.10922 2.40738,-2.91837 4.56739,-4.02032 2.16001,-1.10196 3.92729,-2.64285 3.92729,-3.42422 0,-3.50501 5.28856,-2.35561 6.48343,1.4091 0.3404,1.07245 1.4504,2.21382 2.4667,2.53637 1.0163,0.32256 2.9058,1.64212 4.1988,2.93236 1.2931,1.29024 3.2156,2.51185 4.2723,2.71469 1.4531,0.27892 2.2001,1.76558 3.0656,6.10102 1.3301,6.66307 1.2656,6.5702 5.0861,7.326 2.14,0.42336 3.5208,0.0228 5.1353,-1.48958 2.9895,-2.80064 4.9413,-2.60095 5.7416,0.58741 0.4505,1.79521 0.1616,3.16111 -0.8916,4.21429 -1.1126,1.11261 -1.5582,1.19409 -1.5582,0.28492 0,-0.70032 -0.3787,-1.03926 -0.8416,-0.7532 -0.9143,0.56505 -0.8057,3.70009 0.359,10.37332 l 0.7463,4.27538 -2.6319,-1.00063 c -1.5503,-0.58943 -3.5565,-0.6491 -4.8818,-0.14519 -1.2375,0.4705 -2.5527,0.79686 -2.9225,0.72525 -1.3819,-0.26754 -8.8093,4.93377 -9.3528,6.54961 -1.0926,3.24879 -19.4517,8.55164 -24.72473,7.14153 z" />
  <path
     inkscape:connector-curvature="0"
     id="path8160"
     style="fill:#ffffff;fill-opacity:1"
     d="m 285.87827,329.55823 c 0,-0.83168 -1.09784,-2.23147 -2.43965,-3.11066 -1.34181,-0.87918 -2.20927,-2.1989 -1.92768,-2.93271 0.30485,-0.79444 -0.42752,-1.60013 -1.81035,-1.99158 -5.47541,-1.54994 -7.66384,-2.77271 -7.1869,-4.0156 0.27551,-0.71797 0.0129,-1.607 -0.58356,-1.97564 -0.59647,-0.36863 -0.80341,-1.12503 -0.45988,-1.68088 0.34353,-0.55584 -0.74353,-2.34823 -2.41569,-3.98308 -1.67217,-1.63485 -3.34832,-4.41147 -3.72478,-6.17027 -0.37647,-1.7588 -1.53206,-4.00285 -2.568,-4.98678 -2.94846,-2.80044 -2.25149,-5.06666 2.61267,-8.49524 3.68631,-2.59835 4.93623,-3.0019 6.9392,-2.24037 1.34366,0.51086 2.90818,1.79801 3.47672,2.86033 0.57268,1.07006 2.60134,2.22558 4.54865,2.5909 1.96815,0.36923 3.97584,1.52059 4.56228,2.61637 0.73029,1.36457 2.09619,1.95697 4.51215,1.95697 1.90565,0 3.46482,-0.43588 3.46482,-0.96862 0,-0.53273 0.69441,-0.70214 1.54313,-0.37646 0.84872,0.32569 1.30262,0.83266 1.00867,1.12661 -0.29394,0.29395 -0.0353,1.13592 0.57483,1.87106 0.61011,0.73513 1.08437,3.14204 1.05392,5.34869 -0.0477,3.45357 0.35354,4.22355 2.88204,5.53109 3.33237,1.72323 3.40971,2.01745 1.43741,5.46763 -0.78602,1.375 -1.44508,3.85626 -1.46456,5.51392 -0.0312,2.65054 -0.66842,3.30515 -5.28544,5.42945 -2.8875,1.32854 -6.0375,2.80061 -7,3.27126 -1.2724,0.6222 -1.75,0.44306 -1.75,-0.65639 z" />
  <path
     inkscape:connector-curvature="0"
     id="path8140"
     style="fill:#ffffff;fill-opacity:1"
     d="m 221.75985,304.65637 c -0.0651,-0.63601 0.0223,-1.60638 0.19435,-2.15638 0.17203,-0.55 0.33782,-2.8 0.36842,-5 0.0533,-3.82969 0.20467,-4.01397 3.55565,-4.32818 1.925,-0.1805 4.175,-0.89255 5,-1.58235 2.73942,-2.29047 9.18945,-4.80002 10.07106,-3.91841 1.34905,1.34905 -0.0812,5.19737 -2.17903,5.86321 -1.04062,0.33028 -1.89203,1.40303 -1.89203,2.38389 0,0.98087 -0.48281,3.16839 -1.07291,4.86116 -0.81642,2.34197 -1.56597,2.98281 -3.13531,2.68058 -1.13432,-0.21845 -2.30249,-0.63727 -2.59594,-0.93072 -0.29344,-0.29345 -1.24506,0.079 -2.11469,0.82761 -2.21526,1.90703 -6.05494,2.71193 -6.19957,1.29959 z" />
  <path
     inkscape:connector-curvature="0"
     id="path8156"
     style="fill:#ffffff;fill-opacity:1"
     d="m 261.37827,328.40188 -3,-1.41324 2.99795,0.58696 c 3.13045,0.6129 4.12187,1.14416 3.41872,1.83196 -0.22917,0.22416 -1.76667,-0.2284 -3.41667,-1.00568 z m -16.61617,-6.0443 c -0.52258,-0.62833 -2.34105,-1.71855 -4.04104,-2.42271 -2.69405,-1.11591 -2.88463,-1.43112 -1.48433,-2.45504 1.42377,-1.04109 1.32875,-1.30133 -0.83522,-2.2873 -1.34298,-0.6119 -3.38377,-2.95899 -4.53508,-5.21574 -1.4358,-2.81441 -2.62645,-3.98617 -3.79073,-3.73061 -1.77091,0.38872 -1.84639,0.93826 -0.58429,4.25381 0.66145,1.73764 0.55167,1.82965 -0.83688,0.70144 -1.21433,-0.98666 -1.77391,-1.01426 -2.32975,-0.1149 -0.49574,0.80213 -1.15767,0.41487 -2.05359,-1.20144 -1.79373,-3.23605 -1.71276,-3.8851 0.48464,-3.8851 1.03265,0 2.43364,-0.67005 3.1133,-1.48899 0.67967,-0.81894 1.64219,-1.2378 2.13894,-0.93079 0.49676,0.30701 1.96277,0.75034 3.2578,0.98518 2.07212,0.37574 2.511,-0.14246 3.65811,-4.31922 0.71693,-2.6104 2.34993,-5.73719 3.6289,-6.94843 1.27896,-1.21124 2.32539,-2.69664 2.32539,-3.30089 0,-0.60425 1.4625,-0.0129 3.25,1.31415 4.57637,3.39748 9.48181,4.90289 11.84867,3.63618 1.48466,-0.79456 1.90133,-0.68112 1.90133,0.51763 0,0.84435 0.9,2.43518 2,3.53518 1.9953,1.9953 2.71643,5 1.2,5 -0.44,0 -1.24906,-0.44906 -1.79791,-0.99791 -0.66389,-0.66389 -2.89686,-0.50331 -6.67101,0.47974 -3.1202,0.81271 -6.30312,1.23589 -7.07315,0.9404 -0.77003,-0.29549 -2.12298,0.18567 -3.00655,1.06925 -0.88358,0.88357 -2.1791,1.53114 -2.87894,1.43903 -4.52602,-0.5957 -4.60322,2.61147 -0.16513,6.85996 1.31598,1.25976 2.39269,2.69193 2.39269,3.18261 0,0.49068 1.0125,1.20812 2.25,1.59431 1.2375,0.3862 2.565,1.19418 2.95,1.79551 0.38501,0.60134 2.18501,1.61013 4,2.24177 3.22236,1.1214 3.17452,1.14545 -2.03301,1.02188 -2.93316,-0.0696 -5.76058,-0.64064 -6.28316,-1.26896 z" />
  <path
     inkscape:connector-curvature="0"
     id="path8158"
     style="fill:#ffffff;fill-opacity:1"
     d="m 259.7301,326.29356 c -1.49981,-0.23037 -2.85652,-1.20349 -3.12863,-2.24405 -0.27391,-1.04745 -1.78641,-2.12413 -3.51829,-2.50451 -1.67081,-0.36698 -3.2863,-1.31473 -3.58999,-2.10612 -0.30368,-0.79139 -1.08332,-1.43889 -1.73252,-1.43889 -1.69335,0 -7.67807,-6.40491 -8.06008,-8.62597 -0.23264,-1.35263 0.19183,-1.78602 1.52564,-1.5577 1.01638,0.17399 2.67553,-0.4326 3.68699,-1.34796 1.01146,-0.91536 2.28064,-1.39136 2.82039,-1.05777 0.53975,0.33358 3.56623,-0.0668 6.7255,-0.88964 4.13314,-1.07655 6.10695,-1.19503 7.03784,-0.42247 0.71154,0.59053 1.76342,0.78339 2.33752,0.42858 0.57409,-0.35481 1.0438,0.0218 1.0438,0.83699 0,0.81515 1.37964,2.86173 3.06586,4.54795 1.68622,1.68622 2.80388,3.48974 2.48368,4.00783 -0.32019,0.51808 -0.15413,1.2065 0.36901,1.52982 0.52315,0.32333 -0.095,1.71672 -1.37369,3.09643 -1.27867,1.37972 -2.87896,3.84627 -3.55618,5.48124 -0.67723,1.63497 -1.73923,2.90525 -2.36,2.82284 -0.62077,-0.0824 -2.32036,-0.33288 -3.77685,-0.5566 z" />
  <path
     inkscape:connector-curvature="0"
     id="path8138"
     style="fill:#ffffff;fill-opacity:1"
     d="m 273.02331,332.48271 c -1.29523,-1.36549 -3.39523,-2.48272 -4.66667,-2.48272 -3.37008,0 -3.55314,-1.89623 -0.69925,-7.24349 1.98996,-3.72854 2.81732,-4.5064 3.86679,-3.63542 0.73433,0.60944 3.0269,1.68967 5.09461,2.40052 2.06772,0.71084 3.53448,1.49012 3.25948,1.73172 -0.275,0.24161 0.1176,1.18344 0.87244,2.09298 1.55115,1.86901 0.15663,2.28276 -1.63966,0.48647 -1.45157,-1.45157 -2.2766,0.34648 -2.5459,5.54842 -0.10279,1.98541 -0.41188,3.60408 -0.68688,3.59704 -0.275,-0.007 -1.55973,-1.13002 -2.85496,-2.49552 z" />
  <path
     inkscape:connector-curvature="0"
     id="path8154"
     style="fill:#ffffff;fill-opacity:1"
     d="m 287.87827,357.12788 c 0,-0.56032 -1.2375,-1.61188 -2.75,-2.3368 -1.5125,-0.72492 -2.75,-1.89089 -2.75,-2.59104 0,-0.70015 -0.50838,-1.59409 -1.12974,-1.98652 -0.62135,-0.39244 -1.46042,-3.63853 -1.8646,-7.21353 -0.40418,-3.575 -1.13266,-7.25672 -1.61885,-8.18161 -0.51351,-0.97686 -0.50758,-3.28186 0.0142,-5.5 0.49397,-2.10011 0.94333,-3.23886 0.99858,-2.53054 0.0608,0.77919 1.13793,1.17416 2.72718,1 2.3688,-0.25958 2.80216,0.24396 4.41327,5.12804 1.02645,3.11167 3.10209,6.64537 4.87864,8.3057 2.66856,2.49399 2.93591,3.18166 1.95183,5.02043 -0.62714,1.17184 -1.22671,4.18427 -1.33236,6.6943 -0.14194,3.37224 -0.62886,4.64809 -1.8651,4.887 -0.92016,0.17783 -1.67301,-0.13511 -1.67301,-0.69543 z" />
  <path
     inkscape:connector-curvature="0"
     id="path8152"
     style="fill:#ffffff;fill-opacity:1"
     d="m 291.0413,340.15228 c -2.6584,-2.48331 -5.10511,-7.66963 -4.03313,-8.54904 0.20356,-0.16699 3.48223,-1.75572 7.28594,-3.53052 6.90009,-3.21957 6.92456,-3.22298 10.75,-1.49795 2.10879,0.95093 3.83416,2.07382 3.83416,2.49531 0,0.42148 0.23658,1.38285 0.52573,2.13636 0.33959,0.88497 -1.04666,2.13394 -3.91545,3.52771 -2.44265,1.18673 -4.71288,3.01373 -5.04495,4.06001 -0.48184,1.51814 -4.32031,4.20583 -6.00663,4.20583 -0.19095,0 -1.71901,-1.28147 -3.39567,-2.84771 z" />
  <path
     inkscape:connector-curvature="0"
     id="path8150"
     style="fill:#ffffff;fill-opacity:1"
     d="m 309.87827,329.46224 c 0,-0.81853 -2.025,-2.47206 -4.5,-3.67451 -5.0291,-2.44333 -5.67358,-4.61762 -2.93717,-9.90923 1.71672,-3.31978 0.90603,-5.27754 -2.65314,-6.40717 -1.05033,-0.33336 -1.90969,-1.36601 -1.90969,-2.29478 0,-1.38393 1.12788,-1.72391 6.25,-1.88398 8.12579,-0.25394 17.31273,-3.90001 22.49233,-8.92661 4.7059,-4.56695 11.0314,-6.6894 15.3989,-5.1669 2.694,0.93916 4.2175,4.80093 1.894,4.80093 -1.8661,0 -3.1774,3.8658 -2.0352,6 0.7605,1.42099 0.7605,2.57901 0,4 -0.6205,1.15939 -0.6747,2 -0.1288,2 2.0285,0 -0.3084,4.14827 -4.5281,8.03783 -3.2187,2.96692 -4.2739,4.60509 -3.8422,5.96526 0.9057,2.85338 -2.7854,4.34949 -8.7716,3.55539 -4.173,-0.55357 -5.3374,-0.33687 -7.1098,1.32316 -1.1657,1.09182 -3.35703,2.45397 -4.86953,3.027 -2.23483,0.84668 -2.75,0.76306 -2.75,-0.44639 z" />
  <path
     inkscape:connector-curvature="0"
     id="path8144"
     style="fill:#ffffff;fill-opacity:1"
     d="m 377.4054,265.74999 c -0.2255,-0.6875 -0.5565,-2.15 -0.7354,-3.25 -0.2747,-1.68845 -1.064,-1.98624 -5.0672,-1.91166 -4.3652,0.0813 -4.6221,-0.0441 -3.2332,-1.57874 0.8298,-0.9169 1.5087,-2.0859 1.5087,-2.59779 0,-0.5119 0.9174,-1.50368 2.0388,-2.20397 1.1213,-0.70029 1.7816,-1.68937 1.4673,-2.19796 -0.3143,-0.50859 0.7708,-1.61887 2.4115,-2.46729 3.4653,-1.79197 4.4464,-1.94056 3.5824,-0.54259 -0.3399,0.55 -0.1,1 0.5332,1 0.6332,0 2.2956,0.9001 3.6942,2.00021 l 2.5428,2.00022 2.3171,-2.50022 c 2.5834,-2.78753 4.9194,-3.22806 5.7425,-1.08297 0.4981,1.29794 -1.3952,2.78443 -3.8164,2.99639 -0.5425,0.0475 -1.5934,1.35272 -2.3353,2.90049 -0.7418,1.54776 -1.9853,3.0584 -2.7634,3.35698 -0.7781,0.29858 -1.429,1.28223 -1.4465,2.18589 -0.074,3.83281 -5.404,7.05419 -6.4411,3.89301 z" />
  <path
     inkscape:connector-curvature="0"
     id="path8146"
     style="fill:#ffffff;fill-opacity:1"
     d="m 394.9364,376.10869 c -0.5567,-1.04022 -3.2725,-2.70411 -6.0351,-3.69755 -2.7627,-0.99343 -5.023,-2.16734 -5.023,-2.60869 0,-0.44135 -0.675,-0.80246 -1.5,-0.80246 -0.825,0 -1.5,0.62686 -1.5,1.39301 0,0.76616 -0.675,1.65203 -1.5,1.96862 -0.825,0.31658 -1.5,1.21658 -1.5,2 0,0.78341 -0.5921,1.6516 -1.3158,1.92931 -1.9519,0.74902 -10.6842,-0.41236 -10.6842,-1.42099 0,-0.47847 -0.5625,-0.87272 -1.25,-0.87611 -0.6875,-0.003 -2.4924,-0.65421 -4.0108,-1.44628 -2.2578,-1.17773 -2.9813,-1.20396 -3.9715,-0.14396 -0.983,1.05231 -1.4514,1.05564 -2.4893,0.0177 -0.7031,-0.70315 -1.2784,-1.97702 -1.2784,-2.83083 0,-0.85381 -1.0985,-1.82808 -2.4411,-2.16506 -1.6781,-0.42115 -2.6477,-1.55302 -3.1019,-3.62087 -0.3634,-1.6545 -1.4808,-3.82831 -2.4832,-4.83067 -3.6779,-3.678 -4.1982,-5.74952 -1.9967,-7.95096 1.1126,-1.11261 1.6253,-2.02292 1.1395,-2.02292 -0.4859,0 -1.1173,-0.89458 -1.4032,-1.98796 -0.286,-1.09338 -1.6271,-2.40891 -2.9803,-2.9234 -1.3532,-0.51449 -2.7552,-1.70381 -3.1156,-2.64294 -0.8068,-2.10253 3.7781,-8.4457 6.1046,-8.4457 0.8912,0 2.4922,-0.7875 3.5578,-1.75 1.4139,-1.27706 3.462,-1.71167 7.5788,-1.60818 3.1027,0.078 5.8663,-0.15945 6.1413,-0.52767 0.275,-0.36822 1.615,-1.14809 2.9777,-1.73306 1.6442,-0.70574 2.4852,-1.87396 2.5,-3.47233 0.02,-2.17881 0.4041,-2.38676 4.0223,-2.1783 5.7852,0.33331 12.2795,-0.6558 13.738,-2.09236 1.6669,-1.64179 9.2785,-4.6381 11.7822,-4.6381 1.0889,0 1.9798,-0.45 1.9798,-1 0,-0.55 0.9,-1 2,-1 1.9589,0 2,0.66667 2,32.5 l 0,32.5 -2.4648,0 c -1.3942,0 -2.9045,-0.82155 -3.4771,-1.8913 z m -57.6703,-44.92723 c 0.3938,-0.63713 -0.2196,-3.2733 -1.363,-5.85816 l -2.0789,-4.69974 4.527,-4.59613 c 2.4899,-2.52788 4.5271,-5.12906 4.5271,-5.7804 0,-2.03243 3.001,-0.14573 4.5583,2.86574 1.1319,2.18877 2.4291,3.02149 5.463,3.50662 5.3257,0.85161 5.1226,2.98703 -0.5213,5.48362 -2.475,1.09482 -4.5,2.57477 -4.5,3.28879 0,1.68314 -3.1994,4.56341 -5.6131,5.05314 -1.0378,0.21058 -2.7483,0.72308 -3.801,1.1389 -1.3335,0.52672 -1.6969,0.40468 -1.1981,-0.40238 z" />
  <path
     inkscape:connector-curvature="0"
     id="path8136"
     style="fill:#ffffff;fill-opacity:1"
     d="m 332.3793,398.00163 c -0.9041,-1.46277 -0.4412,-1.87161 3.3497,-2.95882 1.9533,-0.5602 3.3479,-0.53046 3.7248,0.0794 0.3827,0.61918 1.0261,0.62747 1.7635,0.0227 0.6385,-0.5237 3.861,-1.27696 7.161,-1.67391 3.3,-0.39694 6.7875,-1.13114 7.75,-1.63155 1.1179,-0.58124 1.75,-0.54117 1.75,0.11095 0,0.56143 -2.7365,2.40213 -6.081,4.09044 -4.7771,2.41146 -6.3829,2.81909 -7.489,1.90105 -1.2959,-1.07552 -6.1957,-0.73654 -9.8999,0.6849 -0.7303,0.28025 -1.6434,-0.001 -2.0291,-0.62517 z m -15.5456,-13.24697 c -1.48614,-1.94617 -1.6125,-1.95474 -3.34075,-0.2265 -1.50622,1.50623 -1.94049,1.56822 -2.69012,0.38401 -0.49166,-0.7767 -0.90083,-2.11505 -0.90925,-2.97412 -0.008,-0.85907 -1.35028,-2.54893 -2.98191,-3.75525 -1.68988,-1.24938 -2.73914,-2.78606 -2.43807,-3.57065 0.6249,-1.62845 10.871,-5.06002 12.3602,-4.13962 0.5658,0.34964 1.7356,0.24005 2.5997,-0.24353 1.2802,-0.71644 1.328,-1.0788 0.258,-1.95705 -2.1462,-1.76146 -6.10463,-1.76811 -9.41498,-0.0158 -1.70597,0.90304 -4.18097,1.57914 -5.5,1.50245 C 301.91958,369.5925 296.631,366 299.24341,366 c 0.89917,0 1.63486,-0.45 1.63486,-1 0,-1.05083 -0.15814,-1.11398 -3.73198,-1.49022 -4.31527,-0.4543 -5.28344,-2.24959 -4.85819,-9.00852 0.46707,-7.42342 1.64172,-9.95944 5.54895,-11.97994 1.59471,-0.82466 3.15858,-2.31572 3.47525,-3.31347 0.31667,-0.99774 2.59856,-2.79683 5.07087,-3.99797 2.4723,-1.20114 4.4951,-2.63973 4.4951,-3.19688 0,-0.55715 0.64047,-1.013 1.42327,-1.013 0.78281,0 2.78265,-1.14384 4.44406,-2.54186 2.6786,-2.25385 3.5917,-2.46613 8.0592,-1.87349 3.7964,0.50361 5.6377,0.27566 7.4697,-0.92473 2.364,-1.5489 2.4616,-1.50666 3.5176,1.52272 0.5974,1.71369 1.0862,3.27366 1.0862,3.46658 0,0.19293 -2.475,0.35078 -5.5,0.35078 -3.025,0 -5.5,0.45 -5.5,1 0,0.55 -0.6794,1 -1.5098,1 -0.8304,0 -2.2804,0.9 -3.2223,2 -0.9418,1.1 -2.3032,2 -3.0254,2 -1.003,0 -1.0603,0.47203 -0.2425,2 0.5887,1.1 2.067,2.0118 3.2852,2.02622 1.6606,0.0197 1.214,0.4846 -1.7852,1.85828 -3.4452,1.57794 -4.36389,1.64919 -6.62325,0.51366 -3.18336,-1.59992 -3.87678,-1.03465 -3.87678,3.16037 0,6.23944 6.99373,12.31679 16.26223,14.13129 4.4802,0.87709 4.5976,2.66227 0.1242,1.8892 -2.1375,-0.36941 -5.9114,-0.86864 -8.3864,-1.1094 -4.82995,-0.46984 -3.83349,0.0441 5,2.57883 4.5102,1.29419 7,3.2703 7,5.55582 0,0.93268 -0.6849,0.96349 -2.8927,0.13013 -2.3465,-0.8857 -3.1961,-0.78849 -4.4994,0.51479 -1.4755,1.47555 -1.3999,1.76925 0.9262,3.59901 2.7972,2.20023 1.6919,3.87832 -1.4477,2.19804 -3.9532,-2.11568 -4.2007,-0.52394 -0.5864,3.77139 2.7793,3.30303 3.2883,5.69887 1.0264,4.83089 -0.8104,-0.311 -1.8229,0.0408 -2.25,0.78169 -0.6104,1.05912 -1.1067,0.9147 -2.321,-0.67554 z m 39.5175,-2.79847 c -0.784,-1.26846 1.2831,-3.9562 3.0425,-3.9562 1.7726,0 2.5585,2.52611 1.2064,3.87814 -1.4077,1.40775 -3.4044,1.44443 -4.2489,0.0781 z" />
  <path
     inkscape:connector-curvature="0"
     id="path2122"
     style="fill:#ffffff;fill-opacity:1"
     d="m 49.21394,244.0726 c -1.41289,-0.27432 -1.99818,-0.93826 -1.64301,-1.86382 0.30344,-0.79073 0.027,-1.43769 -0.61431,-1.43769 -0.6413,0 -0.85809,-0.49821 -0.48176,-1.10713 0.46045,-0.74503 -0.0108,-0.88652 -1.44098,-0.43262 -1.16888,0.37099 -2.12523,0.24298 -2.12523,-0.28445 0,-0.52744 1.2375,-1.29737 2.75,-1.71096 l 2.75,-0.75198 -2.5,-0.75675 c -1.44695,-0.43799 -1.80246,-0.79874 -0.844,-0.85643 1.04002,-0.0626 2.24891,-1.83979 3.25,-4.77782 1.885,-5.53217 2.01603,-8.01452 0.4506,-8.53633 -0.84115,-0.28038 -0.81385,-0.99689 0.10325,-2.7105 0.78524,-1.46725 0.88491,-2.55989 0.26929,-2.9522 -0.5834,-0.37178 -0.63801,-1.52975 -0.13547,-2.87283 0.88887,-2.37559 2.37388,-2.92054 3.40633,-1.25 0.99898,1.61638 4.42286,1.14978 6.62629,-0.90303 1.81411,-1.6901 1.86427,-2.00287 0.44827,-2.79531 -2.29861,-1.28636 10e-4,-3.92323 4.17544,-4.7876 4.07987,-0.84481 4.29314,0.7877 0.60572,4.63654 -2.54841,2.65996 -2.58383,2.85231 -0.97695,5.30472 1.88555,2.87772 3.4125,3.25221 4.2596,1.04468 0.89409,-2.32995 1.84676,-1.8029 3.67642,2.03393 2.1277,4.46184 2.21206,14.55356 0.15783,18.88252 -1.42223,2.99714 -1.83707,3.20045 -6.02654,2.95366 -2.54407,-0.14987 -4.25259,0.13394 -3.93173,0.65311 0.3121,0.50498 -0.64109,1.22147 -2.11819,1.5922 -1.47709,0.37073 -3.5205,1.50892 -4.54089,2.52931 -1.0204,1.0204 -2.19277,1.79399 -2.60527,1.71909 -0.4125,-0.0749 -1.73762,-0.32794 -2.94471,-0.56231 z" />
  <circle
     style="opacity:1;fill:#2adccb;fill-opacity:1;fill-rule:evenodd;stroke:none;stroke-width:1;stroke-linecap:butt;stroke-linejoin:round;stroke-miterlimit:4;stroke-dasharray:none;stroke-dashoffset:0;stroke-opacity:1"
     id="path4178"
     cx="134.37407"
     cy="275.10797"
     r="11.111932" />
  <circle
     r="6.4139757"
     cy="247.26091"
     cx="114.12513"
     id="circle4180"
     style="opacity:1;fill:#2adccb;fill-opacity:1;fill-rule:evenodd;stroke:none;stroke-width:1;stroke-linecap:butt;stroke-linejoin:round;stroke-miterlimit:4;stroke-dasharray:none;stroke-dashoffset:0;stroke-opacity:1" />
  <circle
     style="opacity:1;fill:#2adccb;fill-opacity:1;fill-rule:evenodd;stroke:#ffffff;stroke-width:1;stroke-linecap:butt;stroke-linejoin:round;stroke-miterlimit:4;stroke-dasharray:none;stroke-dashoffset:0;stroke-opacity:1"
     id="circle4186"
     cx="121.8793"
     cy="271.7113"
     r="4.5412235" />
  <circle
     r="4.5412235"
     cy="301.90649"
     cx="165.5206"
     id="circle4190"
     style="opacity:1;fill:#2adccb;fill-opacity:1;fill-rule:evenodd;stroke:none;stroke-width:1;stroke-linecap:butt;stroke-linejoin:round;stroke-miterlimit:4;stroke-dasharray:none;stroke-dashoffset:0;stroke-opacity:1" />
  <circle
     style="opacity:1;fill:#2adccb;fill-opacity:1;fill-rule:evenodd;stroke:none;stroke-width:1;stroke-linecap:butt;stroke-linejoin:round;stroke-miterlimit:4;stroke-dasharray:none;stroke-dashoffset:0;stroke-opacity:1"
     id="circle4192"
     cx="150.08751"
     cy="337.4697"
     r="4.5412235" />
  <circle
     r="4.5412235"
     cy="383.09799"
     cx="136.66743"
     id="circle4194"
     style="opacity:1;fill:#2adccb;fill-opacity:1;fill-rule:evenodd;stroke:none;stroke-width:1;stroke-linecap:butt;stroke-linejoin:round;stroke-miterlimit:4;stroke-dasharray:none;stroke-dashoffset:0;stroke-opacity:1" />
</svg>
